<svg xmlns="http://www.w3.org/2000/svg" xmlns:xlink="http://www.w3.org/1999/xlink" width="99" height="29" viewBox="0 0 99 29"><defs><path id="a" d="M740.3 5594.08c-.79 0-1.12.72-1.18 1.25h2.23c.01-.47-.19-1.25-1.05-1.25zm-49.82 2.79c0 .5.33.73.73.73.52 0 .89-.34 1.01-.7.03-.09.03-.19.03-.28v-.7c-.9-.01-1.77.18-1.77.95zm24.65-2.73c-.9 0-1.27.88-1.27 1.73 0 .98.49 1.72 1.26 1.72.73 0 1.24-.71 1.24-1.74 0-.8-.35-1.71-1.23-1.71zm-8.6-.06c-.79 0-1.13.72-1.18 1.25h2.23c.01-.47-.2-1.25-1.05-1.25zm-9.22.13c-.52 0-1 .38-1.14.94-.02.09-.04.21-.04.33v.83l.03.3c.14.52.58.89 1.14.89.8 0 1.29-.63 1.29-1.66 0-.9-.43-1.63-1.28-1.63zm45.22 16.58h-6.57c.03.97.35 1.71.96 2.22.55.47 1.26.7 2.14.7.98 0 1.86-.16 2.66-.47l.34 1.52c-.93.41-2.03.6-3.3.6a4.78 4.78 0 0 1-3.6-1.34 4.99 4.99 0 0 1-1.3-3.62c0-1.49.4-2.72 1.21-3.71a4.2 4.2 0 0 1 3.45-1.58c1.42 0 2.49.52 3.22 1.58.58.84.87 1.87.87 3.1 0 .39-.03.72-.08 1zm-9.03-15.43v3.04h-1.28v-7.4h1.28v3.01h.02c.16-.24.37-.44.64-.57.25-.15.56-.23.88-.23.86 0 1.77.57 1.77 2.2v2.99h-1.28v-2.86c0-.73-.27-1.29-.98-1.29-.5 0-.85.34-1 .72-.04.12-.05.25-.05.39zm-.33 11.89a5.09 5.09 0 0 0-.69-.05c-.77 0-1.36.29-1.78.87a3.2 3.2 0 0 0-.55 1.94v5.17h-2.19v-6.75c0-1.13-.02-2.16-.06-3.1h1.91l.08 1.89h.06c.23-.65.59-1.17 1.09-1.56a2.61 2.61 0 0 1 1.58-.53c.2 0 .39.01.55.04zm-5.62-13.93h.72v-.94l1.26-.36v1.3h1.22v.96h-1.22v2.24c0 .63.17.94.66.94.22 0 .35-.01.5-.05l.02.97c-.19.07-.53.14-.93.14-.48 0-.87-.16-1.1-.42-.29-.29-.41-.76-.41-1.43v-2.39h-.72zm-2.26 20.59c-.91 1-2.11 1.5-3.61 1.5-1.44 0-2.6-.48-3.45-1.44a5.24 5.24 0 0 1-1.29-3.63c0-1.53.44-2.78 1.33-3.75a4.55 4.55 0 0 1 3.57-1.46 4.5 4.5 0 0 1 3.49 1.44 5.21 5.21 0 0 1 1.25 3.61c0 1.52-.43 2.75-1.29 3.73zm-10.21-15.39c-1.43 0-2.54-.98-2.54-2.62 0-1.67 1.09-2.69 2.62-2.69 1.51 0 2.52 1.06 2.52 2.61 0 1.86-1.31 2.7-2.6 2.7zm1.23 8.45h-2.41v4.79c0 1.22.43 1.82 1.28 1.82.39 0 .71-.03.97-.1l.06 1.66c-.43.16-1 .25-1.7.25a2.6 2.6 0 0 1-2.02-.79c-.49-.53-.74-1.42-.74-2.66v-4.97h-1.43v-1.64h1.43v-1.81l2.15-.64v2.45h2.41zm-7.71 7.22c-.89.8-2.13 1.19-3.72 1.19a6.58 6.58 0 0 1-3.54-.84l.51-1.83c.96.57 2.01.85 3.16.85.82 0 1.46-.19 1.92-.56.46-.37.69-.86.69-1.49 0-.55-.19-1.01-.57-1.4-.38-.37-1-.72-1.88-1.05-2.39-.89-3.58-2.19-3.58-3.91 0-1.12.41-2.04 1.26-2.76a4.97 4.97 0 0 1 3.35-1.07c1.25 0 2.28.21 3.1.64l-.55 1.79a5.37 5.37 0 0 0-2.62-.63c-.77 0-1.37.19-1.81.56-.36.35-.55.76-.55 1.24 0 .54.21.99.63 1.35.37.32 1.03.67 1.98 1.05a6.6 6.6 0 0 1 2.6 1.66c.55.64.83 1.43.83 2.37 0 1.16-.4 2.11-1.21 2.84zm-11.01-15.67c-.66 0-1.24-.25-1.61-.88h-.02l-.06.76h-1.09c.02-.34.04-.91.04-1.43V5591h1.28v3.02h.02c.31-.49.86-.81 1.63-.81 1.23 0 2.12 1.03 2.11 2.57 0 1.83-1.16 2.74-2.3 2.74zm-1.5 15.59a4 4 0 0 1-3.04 1.3c-1.3 0-2.24-.47-2.81-1.4v5.17h-2.19v-10.61c0-1.06-.02-2.13-.08-3.24h1.92l.13 1.56h.04a3.65 3.65 0 0 1 3.32-1.76c1.16 0 2.13.46 2.91 1.38a5.42 5.42 0 0 1 1.16 3.63c0 1.68-.45 3-1.36 3.97zm-9.82-23.11h1.28v7.4h-1.28zm-1 23.11a3.99 3.99 0 0 1-3.04 1.3c-1.3 0-2.24-.47-2.81-1.4v5.17h-2.18v-10.61c0-1.06-.03-2.13-.09-3.24h1.93l.12 1.56h.04a3.66 3.66 0 0 1 3.32-1.76c1.16 0 2.13.46 2.91 1.38a5.42 5.42 0 0 1 1.17 3.63c0 1.68-.46 3-1.37 3.97zM676.7 5597c0-1.27 1.14-1.92 3.01-1.91v-.09c0-.33-.13-.88-1.03-.88-.5 0-1.02.15-1.36.37l-.25-.83a3.62 3.62 0 0 1 1.83-.45c1.62 0 2.09 1.03 2.09 2.15v1.82c0 .46.02.91.09 1.22h-1.16l-.09-.56h-.03a1.9 1.9 0 0 1-1.5.68c-1.03 0-1.6-.74-1.6-1.52zm-2.63 1.4h-1.27l-1.88-5.08h1.39l.82 2.58c.14.45.25.85.34 1.27h.03c.1-.42.21-.81.35-1.27l.81-2.58H676zm-.5 16.78l-1.28-4.01h-4.43l-1.22 4.01h-2.27l4.39-13.66h2.72l4.42 13.66zm-15.46-.51a2.24 2.24 0 0 1-2.25 2.24h-9.61c-1.24 0-2.25-1-2.25-2.24v-21.39a2.25 2.25 0 0 1 2.25-2.25h9.61a2.25 2.25 0 0 1 2.25 2.25zm8.53-23.3h1.63l2.28 7.03h-1.38l-.64-1.99h-2.22l-.6 1.99h-1.32zm16.33 1.95h1.28v5.08h-1.28zm.65-2.11c.44 0 .71.3.72.7 0 .37-.28.68-.73.68-.43 0-.71-.31-.71-.68 0-.4.29-.7.72-.7zm7.57 2.91c-.5 0-1.02.15-1.36.37l-.25-.83a3.62 3.62 0 0 1 1.83-.45c1.63 0 2.09 1.03 2.09 2.15v1.82c0 .46.02.91.09 1.22h-1.16l-.09-.56h-.03c-.3.39-.84.68-1.5.68-1.02 0-1.6-.74-1.6-1.52 0-1.27 1.14-1.92 3.01-1.91v-.09c0-.33-.13-.88-1.03-.88zm10.16-3.12h1.28v7.4h-1.28zm5.25 2.21c1.64 0 2.19 1.35 2.19 2.47 0 .24-.02.43-.04.54h-3.4c.03.92.74 1.32 1.56 1.32.6 0 1.01-.1 1.41-.23l.19.87c-.44.19-1.05.32-1.78.32-1.64 0-2.61-1.01-2.61-2.56 0-1.41.85-2.73 2.48-2.73zm13.45.11l.06.76h.03c.23-.39.78-.87 1.63-.87.88 0 1.8.57 1.8 2.18v3.01h-1.28v-2.87c0-.73-.27-1.28-.97-1.28-.51 0-.86.37-1 .75-.04.11-.06.26-.06.41v2.99h-1.28v-3.56c0-.59-.02-1.08-.04-1.52zm20.32-.11c1.65 0 2.19 1.35 2.19 2.47 0 .24-.02.43-.04.54h-3.4c.04.92.74 1.32 1.57 1.32.59 0 1.01-.1 1.4-.23l.19.87c-.44.19-1.04.32-1.77.32-1.65 0-2.61-1.01-2.61-2.56 0-1.41.85-2.73 2.47-2.73zm-72.6.5c-.13-.43-.25-.91-.35-1.31h-.02c-.11.4-.22.89-.34 1.31l-.54 1.73h1.8zm11.94 3.19c.03-.09.03-.19.03-.28v-.7c-.9-.01-1.77.18-1.77.95 0 .5.33.73.73.73.52 0 .89-.34 1.01-.7zm58.64 9.73c-.71 0-1.29.3-1.74.89a3.32 3.32 0 0 0-.65 1.7h4.56c.01-.65-.13-1.2-.42-1.68-.38-.61-.96-.91-1.75-.91zm-68.29-3.29h-.04c-.13.58-.35 1.44-.65 2.58l-1.13 3.57h3.67l-1.15-3.57a40.7 40.7 0 0 1-.7-2.58zm22.61 3.53a2.3 2.3 0 0 0-1.47.53c-.43.37-.72.84-.86 1.42-.07.27-.1.49-.1.67v1.64c0 .72.22 1.32.66 1.82.44.49 1.01.73 1.71.73.83 0 1.47-.31 1.93-.95.46-.63.69-1.47.69-2.52 0-.95-.22-1.74-.65-2.36a2.26 2.26 0 0 0-1.91-.98zm29.09-.14a2.2 2.2 0 0 0-2 1.17c-.4.65-.59 1.44-.59 2.37 0 .9.19 1.68.59 2.32a2.2 2.2 0 0 0 1.98 1.17c.84 0 1.49-.39 1.96-1.19.41-.66.62-1.44.62-2.34 0-.9-.2-1.68-.59-2.33a2.17 2.17 0 0 0-1.97-1.17zm-39.91.14c-.54 0-1.03.18-1.46.53-.45.37-.73.84-.87 1.42-.06.27-.1.49-.1.67v1.64c0 .72.22 1.32.66 1.82.44.49 1.01.73 1.71.73.82 0 1.47-.31 1.93-.95.46-.63.68-1.47.68-2.52 0-.95-.21-1.74-.64-2.36a2.26 2.26 0 0 0-1.91-.98zm-36.49 5.53h11.38v-16.85h-11.38zm5.69 1a1.16 1.16 0 1 0 0 2.32 1.16 1.16 0 0 0 0-2.32zm1.12-19.56c.14 0 .26-.13.26-.27a.26.26 0 0 0-.26-.26h-2.23a.26.26 0 0 0-.26.26c0 .14.12.27.26.27z"/></defs><g transform="translate(-644 -5591)"><use fill="#c5c5c5" xlink:href="#a"/></g></svg>