<svg xmlns="http://www.w3.org/2000/svg" xmlns:xlink="http://www.w3.org/1999/xlink" width="20" height="20" viewBox="0 0 20 20"><defs><path id="a" d="M441.04 4078.12a.41.41 0 0 0-.58 0l-7.63 7.62v-4.41a.4.4 0 0 0-.41-.41.41.41 0 0 0-.42.41v5.42c0 .23.18.42.42.42h5.41c.23 0 .42-.19.42-.42a.42.42 0 0 0-.42-.42h-4.41l7.62-7.62a.4.4 0 0 0 0-.59z"/><path id="b" d="M421.48 4085.25a38.88 38.88 0 0 0 10.96 10.95 2.9 2.9 0 0 0 3.67-.37l.97-.97c.81-.82.81-2.13 0-2.94l-1.77-1.77c-.82-.81-2.29-.88-3.27.32a38.5 38.5 0 0 1-4.82-4.82c1.19-.98 1.13-2.45.32-3.27l-1.77-1.77a2.07 2.07 0 0 0-2.94 0l-.97.97a2.92 2.92 0 0 0-.38 3.67z"/></defs><g transform="translate(-421 -4078)"><use fill="#fff" xlink:href="#a"/></g><g transform="translate(-421 -4078)"><use fill="#fff" xlink:href="#b"/></g></svg>