<svg xmlns="http://www.w3.org/2000/svg" xmlns:xlink="http://www.w3.org/1999/xlink" width="65" height="65" viewBox="0 0 65 65"><defs><path id="a" d="M830.3 2009.66v4.8c0 .97-.8 1.77-1.77 1.77h-.76c-.97 0-1.77-.8-1.77-1.77v-13.69c0-.97.8-1.77 1.77-1.77h.76c.97 0 1.77.8 1.77 1.77v4.79z"/><path id="b" d="M825.33 2014.57v3.11c0 .98-.8 1.77-1.78 1.77h-1.78c-.97 0-1.77-.79-1.77-1.77v-19.91c0-.98.8-1.77 1.77-1.77h1.78c.98 0 1.78.79 1.78 1.77v3.11z"/><path id="c" d="M798.33 2009.77v7.91c0 .98-.79 1.77-1.78 1.77h-1.78c-.97 0-1.77-.79-1.77-1.77v-19.91c0-.98.8-1.77 1.77-1.77h1.78c.99 0 1.78.79 1.78 1.77v7.9z"/><path id="d" d="M793.3 2000.77v13.69c0 .97-.79 1.77-1.77 1.77h-.76c-.97 0-1.77-.8-1.77-1.77V2000.77c0-.97.8-1.77 1.77-1.77h.76c.98 0 1.77.8 1.77 1.77"/><path id="e" d="M832.15 2005.89v2.33c0 .48-.39.87-.88.87H830V2005h1.27c.49 0 .88.4.88.89"/><path id="f" d="M810.39 2010.73c-.09-1.32-.48-2.57-1.83-2.57-.39 0-.84.2-1.12.51l-.02.01-.57-.84a2.64 2.64 0 0 0-1.85-.79l.01-.1c.74-.76 1.01-1.42 1.02-1.95h13.85v4.09h-3.94l-.16.11c-.23-.37-.53-.63-.93-.69-1.16-.15-1.31.87-1.31 2.11l-.01-.28c-.03-.45-.13-2.18-1.62-2.18-.54 0-1.35.24-1.47 1.55-.03.34-.05.69-.05 1.02"/><path id="g" d="M801.09 2008.95c0 .04 0 .07.02.1l-.16.04H798V2005h3c-.1.61-.12 1.35-.09 2.1.03.65.09 1.31.18 1.85"/><path id="h" d="M789.15 2005v4.09h-1.26a.88.88 0 0 1-.89-.87v-2.33c0-.49.39-.89.89-.89z"/><path id="i" d="M824 2019h9.67"/><path id="j" d="M797 2019h25.35"/><path id="k" d="M786 2019h9.24"/><path id="l" d="M825.33 2013.8v3.11c0 .98-.8 1.77-1.78 1.77h-1.78c-.97 0-1.77-.79-1.77-1.77V2009"/><path id="m" d="M820 2005.67v-7.9c0-.98.8-1.77 1.77-1.77h1.78c.98 0 1.78.79 1.78 1.77v3.11"/><path id="n" d="M830.3 2009.66v4.8c0 .97-.8 1.77-1.77 1.77h-.76c-.97 0-1.77-.8-1.77-1.77v-13.69c0-.97.8-1.77 1.77-1.77h.76c.97 0 1.77.8 1.77 1.77v4.79"/><path id="o" d="M830 2005h1.27c.49 0 .88.4.88.89v2.33c0 .48-.39.87-.88.87H830z"/><path id="p" d="M793 2013.8v3.11c0 .98.8 1.77 1.77 1.77h1.78c.99 0 1.78-.79 1.78-1.77V2009"/><path id="q" d="M798.33 2005.67v-7.9c0-.98-.79-1.77-1.78-1.77h-1.78c-.97 0-1.77.79-1.77 1.77v3.11"/><path id="r" d="M789 2009.66v4.8c0 .97.8 1.77 1.77 1.77h.76c.98 0 1.77-.8 1.77-1.77v-13.69c0-.97-.79-1.77-1.77-1.77h-.76c-.97 0-1.77.8-1.77 1.77v4.79"/><path id="s" d="M789.15 2005h-1.26c-.5 0-.89.4-.89.89v2.33c0 .48.39.87.89.87h1.26z"/><path id="t" d="M806 2005h13.83v4.09h-3.93"/><path id="u" d="M800.95 2009.09H798V2005h3"/><path id="v" d="M808.28 2000.31a4.2 4.2 0 0 0-1.88-.3c-.67.02-1.27.18-1.68.39-2.38 1.26-3.2 3-3.61 5.39a9.46 9.46 0 0 0-.09 2.1c.02.65.09 1.31.17 1.86l.02.09c.17.78.85 1.33 1.64 1.33l1.32.01 2.32.01h.5c.37 0 .67-.3.67-.67 0-.37-.07-.73-.21-1.05l-.57-.84a2.64 2.64 0 0 0-1.85-.79h-2.1"/><path id="w" d="M817.15 2004.85s.08-4.61-2.09-5.54a3.4 3.4 0 0 0-.81-.25c-1.75-.33-3 .77-3.25.99"/><path id="x" d="M805 2004s1.08.62 1.03 1.76c-.02.54-.29 1.19-1.03 1.96"/><path id="y" d="M809.45 2004s-.51 1.6-2.45 1.76"/><path id="z" d="M807.25 2013.92c0 .7-.17 1.58-1.62 1.58 0 0-1.63.17-1.63-1.46 0-1.23-.09-2.58.61-3.04"/><path id="A" d="M807 2011c.19.27.31 1.82.31 2.35l.02.51"/><path id="B" d="M810.62 2012.53l-.04 1.2c0 1.37-.32 2.46-1.81 2.46 0 0-1.77.18-1.77-1.52v-.92c0-.82.02-1.83.16-2.75"/><path id="C" d="M808 2009.51c.28-.3.73-.51 1.12-.51 1.35 0 1.74 1.25 1.83 2.57.04.43.04.88.02 1.29"/><path id="D" d="M814.16 2011.46l-.02-.28c-.02-.45-.12-2.18-1.62-2.18-.54 0-1.34.24-1.46 1.55-.04.35-.05.69-.05 1.02-.02.46 0 .89.01 1.29v.07l.04.93c0 .78-.2 2.14 1.51 2.08 1.51-.04 1.69-1.28 1.69-2.15l-.01-.33-.09-1.96"/><path id="E" d="M814.1 2013.45c.04.41.09.58.09.58s.22.8 1.44.68c1.23-.12 1.28-1.55 1.22-2.7a5.37 5.37 0 0 0-.61-2.31c-.23-.36-.53-.63-.94-.68-1.15-.16-1.3.87-1.3 2.1v.05l.01.7c.01.72.04 1.24.09 1.58z"/><path id="F" d="M806.69 1999.61c0-6.19-6.76-14.39-1.85-20.18 0 0 1.01-1.03.03-1.79 0 0-2.34-2.05-3.87-5.64"/><path id="G" d="M815 1999.67l.01-.01c.05-.22 2.2-9.3 1.13-19.28 0 0 1.2-.28 1.2-1.91 0-1.74-1.2-1.9-1.2-1.9s.16-2.85.14-5.57"/><path id="H" d="M809 1995l.24 3.1"/><path id="I" d="M807 1974c.21.22.44.43.69.63"/><path id="J" d="M804 1971c.35.8.66 1.43 1.36 2.28"/><path id="K" d="M796 1987v2.72"/><path id="L" d="M787 1990l1.99 2.44"/><path id="M" d="M823 1987v2.72"/><path id="N" d="M830.99 1990l-1.99 2.44"/><path id="O" d="M815.49 1970.57a31.5 31.5 0 1 1-11.97 61.86 31.5 31.5 0 0 1 11.97-61.86z"/></defs><g transform="translate(-777 -1969)"><use fill="#f0f0f0" xlink:href="#a"/><use fill="#f0f0f0" xlink:href="#b"/><use fill="#f0f0f0" xlink:href="#c"/><use fill="#f0f0f0" xlink:href="#d"/><use fill="#fff" xlink:href="#e"/><use fill="#fff" xlink:href="#f"/><use fill="#fff" xlink:href="#g"/><use fill="#fff" xlink:href="#h"/><use fill="#fff" fill-opacity="0" stroke="#666" stroke-linecap="round" stroke-linejoin="round" stroke-miterlimit="50" stroke-width=".79" xlink:href="#i"/><use fill="#fff" fill-opacity="0" stroke="#666" stroke-linecap="round" stroke-linejoin="round" stroke-miterlimit="50" stroke-width=".79" xlink:href="#j"/><use fill="#fff" fill-opacity="0" stroke="#666" stroke-linecap="round" stroke-linejoin="round" stroke-miterlimit="50" stroke-width=".79" xlink:href="#k"/><use fill="#fff" fill-opacity="0" stroke="#666" stroke-linecap="round" stroke-linejoin="round" stroke-miterlimit="50" stroke-width=".79" xlink:href="#l"/><use fill="#fff" fill-opacity="0" stroke="#666" stroke-linecap="round" stroke-linejoin="round" stroke-miterlimit="50" stroke-width=".79" xlink:href="#m"/><use fill="#fff" fill-opacity="0" stroke="#666" stroke-linecap="round" stroke-linejoin="round" stroke-miterlimit="50" stroke-width=".79" xlink:href="#n"/><use fill="#fff" fill-opacity="0" stroke="#666" stroke-linecap="round" stroke-linejoin="round" stroke-miterlimit="50" stroke-width=".79" xlink:href="#o"/><use fill="#fff" fill-opacity="0" stroke="#666" stroke-linecap="round" stroke-linejoin="round" stroke-miterlimit="50" stroke-width=".79" xlink:href="#p"/><use fill="#fff" fill-opacity="0" stroke="#666" stroke-linecap="round" stroke-linejoin="round" stroke-miterlimit="50" stroke-width=".79" xlink:href="#q"/><use fill="#fff" fill-opacity="0" stroke="#666" stroke-linecap="round" stroke-linejoin="round" stroke-miterlimit="50" stroke-width=".79" xlink:href="#r"/><use fill="#fff" fill-opacity="0" stroke="#666" stroke-linecap="round" stroke-linejoin="round" stroke-miterlimit="50" stroke-width=".79" xlink:href="#s"/><use fill="#fff" fill-opacity="0" stroke="#666" stroke-linecap="round" stroke-linejoin="round" stroke-miterlimit="50" stroke-width=".79" xlink:href="#t"/><use fill="#fff" fill-opacity="0" stroke="#666" stroke-linecap="round" stroke-linejoin="round" stroke-miterlimit="50" stroke-width=".79" xlink:href="#u"/><g><use fill="#fff" fill-opacity="0" stroke="#666" stroke-linecap="round" stroke-linejoin="round" stroke-miterlimit="50" stroke-width=".79" xlink:href="#v"/></g><g><use fill="#fff" fill-opacity="0" stroke="#666" stroke-linecap="round" stroke-linejoin="round" stroke-miterlimit="50" stroke-width=".79" xlink:href="#w"/></g><g><use fill="#fff" fill-opacity="0" stroke="#666" stroke-linecap="round" stroke-linejoin="round" stroke-miterlimit="50" stroke-width=".79" xlink:href="#x"/></g><g><use fill="#fff" fill-opacity="0" stroke="#666" stroke-linecap="round" stroke-linejoin="round" stroke-miterlimit="50" stroke-width=".79" xlink:href="#y"/></g><g><use fill="#fff" fill-opacity="0" stroke="#666" stroke-linecap="round" stroke-linejoin="round" stroke-miterlimit="50" stroke-width=".83" xlink:href="#z"/></g><g><use fill="#fff" fill-opacity="0" stroke="#666" stroke-linecap="round" stroke-linejoin="round" stroke-miterlimit="50" stroke-width=".83" xlink:href="#A"/></g><g><use fill="#fff" fill-opacity="0" stroke="#666" stroke-linecap="round" stroke-linejoin="round" stroke-miterlimit="50" stroke-width=".83" xlink:href="#B"/></g><g><use fill="#fff" fill-opacity="0" stroke="#666" stroke-linecap="round" stroke-linejoin="round" stroke-miterlimit="50" stroke-width=".83" xlink:href="#C"/></g><g><use fill="#fff" fill-opacity="0" stroke="#666" stroke-linecap="round" stroke-linejoin="round" stroke-miterlimit="50" stroke-width=".83" xlink:href="#D"/></g><g><use fill="#fff" fill-opacity="0" stroke="#666" stroke-linecap="round" stroke-linejoin="round" stroke-miterlimit="50" stroke-width=".83" xlink:href="#E"/></g><g><use fill="#fff" fill-opacity="0" stroke="#666" stroke-linecap="round" stroke-linejoin="round" stroke-miterlimit="50" stroke-width=".79" xlink:href="#F"/></g><g><use fill="#fff" fill-opacity="0" stroke="#666" stroke-linecap="round" stroke-linejoin="round" stroke-miterlimit="50" stroke-width=".79" xlink:href="#G"/></g><g><use fill="#fff" fill-opacity="0" stroke="#666" stroke-linecap="round" stroke-linejoin="round" stroke-miterlimit="50" stroke-width=".79" xlink:href="#H"/></g><g><use fill="#fff" fill-opacity="0" stroke="#666" stroke-linecap="round" stroke-linejoin="round" stroke-miterlimit="50" stroke-width=".79" xlink:href="#I"/></g><g><use fill="#fff" fill-opacity="0" stroke="#666" stroke-linecap="round" stroke-linejoin="round" stroke-miterlimit="50" stroke-width=".79" xlink:href="#J"/></g><g><use fill="#fff" fill-opacity="0" stroke="#666" stroke-linecap="round" stroke-linejoin="round" stroke-miterlimit="50" stroke-width=".8" xlink:href="#K"/></g><g><use fill="#fff" fill-opacity="0" stroke="#666" stroke-linecap="round" stroke-linejoin="round" stroke-miterlimit="50" stroke-width=".8" xlink:href="#L"/></g><g><use fill="#fff" fill-opacity="0" stroke="#666" stroke-linecap="round" stroke-linejoin="round" stroke-miterlimit="50" stroke-width=".8" xlink:href="#M"/></g><g><use fill="#fff" fill-opacity="0" stroke="#666" stroke-linecap="round" stroke-linejoin="round" stroke-miterlimit="50" stroke-width=".8" xlink:href="#N"/></g><g><use fill="#fff" fill-opacity="0" stroke="#666" stroke-linecap="round" stroke-linejoin="round" stroke-miterlimit="50" stroke-width=".79" xlink:href="#O"/></g></g></svg>