<svg xmlns="http://www.w3.org/2000/svg" xmlns:xlink="http://www.w3.org/1999/xlink" width="120" height="29" viewBox="0 0 120 29"><defs><path id="a" d="M446.22 5594.01c.33-.94.49-1.45.49-1.52h.05c0 .07.15.58.47 1.52zm2.29 1.54c0-.1-.2-.69-.59-1.77a14.31 14.31 0 0 1-.58-1.78h-1.05c0 .11-.21.71-.64 1.8a20.9 20.9 0 0 0-.65 1.75h.83c0-.13.09-.47.26-1.02h1.28c.17.56.25.9.25 1.02z"/><path id="b" d="M451.97 5595.55h-.69c0-.08-.25-.47-.76-1.18a6.37 6.37 0 0 1-.9-1.54h-.05c.05.4.07.76.07 1.08 0 .45.01.99.04 1.64H449a35.6 35.6 0 0 0 0-3.55h.82c0 .1.23.48.68 1.15.49.72.77 1.2.84 1.46h.04a11.6 11.6 0 0 1-.07-1.09l-.03-1.52h.69a35.1 35.1 0 0 0 0 3.55"/><path id="c" d="M455 5594.67c-.19.24-.48.37-.88.37-.12 0-.24-.02-.36-.04l-.03-1.29c0-.4-.01-.78-.03-1.14l.33-.03c.43 0 .74.12.95.36.2.24.31.54.31.88 0 .35-.1.65-.29.89zm1.04-1c0-.46-.15-.85-.45-1.18-.3-.33-.78-.49-1.45-.49l-.3.01-.36.01H453a38.23 38.23 0 0 1 0 3.54c.48.03.86.04 1.13.04.6 0 1.07-.2 1.41-.58.33-.39.5-.84.5-1.35z"/><path id="d" d="M458 5593.66l-.26-.01c0-.45-.01-.82-.03-1.1.13-.02.29-.04.46-.04.47 0 .71.19.71.55 0 .4-.3.6-.88.6zm1.91 1.9a9.2 9.2 0 0 0-.56-1.29c-.14-.23-.31-.38-.49-.43v-.04c.48-.18.72-.49.72-.94 0-.58-.42-.86-1.27-.86l-.48.01-.35.01H457a38.23 38.23 0 0 1 0 3.54h.77l-.03-1.41h.31c.25 0 .44.07.55.22.12.15.28.55.5 1.19z"/><path id="e" d="M462.47 5594.77a.82.82 0 0 1-.68.36.91.91 0 0 1-.73-.36c-.2-.23-.3-.54-.3-.92 0-.36.1-.66.29-.9a.82.82 0 0 1 .68-.36c.29 0 .53.12.73.36.2.23.3.54.3.92 0 .36-.1.66-.29.9zm1.05-.98c0-.52-.16-.95-.49-1.29-.33-.33-.74-.5-1.22-.5-.52 0-.94.18-1.29.55-.35.37-.52.83-.52 1.39 0 .52.16.94.49 1.28.33.34.74.51 1.22.51.52 0 .94-.19 1.29-.55.35-.37.52-.83.52-1.39z"/><path id="f" d="M464.78 5595.55H464a51.5 51.5 0 0 0 0-3.55h.78a39.8 39.8 0 0 0 0 3.55"/><path id="g" d="M468 5594.67c-.19.24-.48.37-.88.37-.12 0-.24-.02-.36-.04l-.03-1.29-.02-1.14.32-.03c.43 0 .74.12.95.36.2.24.31.54.31.88 0 .35-.1.65-.29.89zm1.04-1c0-.46-.15-.85-.45-1.18-.3-.33-.78-.49-1.44-.49l-.31.01-.36.01H466a38.23 38.23 0 0 1 0 3.54c.48.03.86.04 1.13.04.6 0 1.07-.2 1.41-.58.33-.39.5-.84.5-1.35z"/><path id="h" d="M472.22 5594.01c.33-.94.49-1.45.49-1.52h.05c0 .07.15.58.47 1.52zm2.29 1.54c0-.1-.2-.69-.59-1.77a14.31 14.31 0 0 1-.58-1.78h-1.05c0 .11-.21.71-.64 1.8a20.9 20.9 0 0 0-.65 1.75h.83c0-.13.09-.47.26-1.02h1.28c.17.56.25.9.25 1.02z"/><path id="i" d="M475.9 5593.72h-.16c0-.44-.01-.82-.03-1.17.15-.02.29-.04.42-.04.52 0 .78.2.78.59 0 .41-.33.62-1.01.62zm1.73-.77a.8.8 0 0 0-.37-.72 1.62 1.62 0 0 0-.88-.23l-.51.01-.39.01H475a38.63 38.63 0 0 1 0 3.54h.78l-.03-1.35.18.01c.48 0 .88-.11 1.21-.31.32-.21.49-.53.49-.96z"/><path id="j" d="M478.9 5593.72h-.16c0-.44-.01-.82-.03-1.17.15-.02.29-.04.42-.04.52 0 .78.2.78.59 0 .41-.33.62-1.01.62zm1.73-.77a.8.8 0 0 0-.37-.72 1.62 1.62 0 0 0-.88-.23l-.51.01-.39.01H478a38.63 38.63 0 0 1 0 3.54h.78l-.03-1.35.18.01c.48 0 .88-.11 1.21-.31.32-.21.49-.53.49-.96z"/><path id="k" d="M485.47 5594.77a.82.82 0 0 1-.68.36.91.91 0 0 1-.73-.36c-.2-.23-.3-.54-.3-.92 0-.36.1-.66.29-.9a.82.82 0 0 1 .68-.36c.29 0 .53.12.73.36.2.23.3.54.3.92 0 .36-.1.66-.29.9zm1.05-.98c0-.52-.16-.95-.49-1.29-.33-.33-.74-.5-1.22-.5-.52 0-.94.18-1.29.55-.35.37-.52.83-.52 1.39 0 .52.16.94.49 1.28.33.34.74.51 1.22.51.51 0 .94-.19 1.29-.55.35-.37.52-.83.52-1.39z"/><path id="l" d="M489.97 5595.55h-.69c0-.08-.25-.47-.76-1.18a6.37 6.37 0 0 1-.9-1.54h-.05c.05.4.07.76.07 1.08 0 .45.01.99.04 1.64H487a35.6 35.6 0 0 0 0-3.55h.82c0 .1.23.48.68 1.15.49.72.77 1.2.84 1.46h.04a11.6 11.6 0 0 1-.07-1.09l-.03-1.52h.69a35.1 35.1 0 0 0 0 3.55"/><path id="m" d="M456.94 5607.1c0 1.76-.53 3.16-1.59 4.2a6.24 6.24 0 0 1-4.7 1.87 6.49 6.49 0 0 1-4.71-1.89 6.31 6.31 0 0 1-1.94-4.7 6.3 6.3 0 0 1 1.94-4.69 6.49 6.49 0 0 1 4.71-1.89c.91 0 1.79.18 2.62.53.84.35 1.5.82 2.01 1.41l-1.13 1.11c-.85-1-2.01-1.5-3.5-1.5a4.94 4.94 0 0 0-4.97 5.03 4.94 4.94 0 0 0 4.97 5.04c1.43 0 2.62-.47 3.57-1.41a3.9 3.9 0 0 0 1.07-2.55h-4.64v-1.52h6.2c.06.33.09.65.09.96"/><path id="n" d="M459.64 5608.6c0-.94.29-1.7.85-2.27a2.75 2.75 0 0 1 2.01-.85c.78 0 1.45.28 2.01.85.57.57.85 1.33.85 2.27 0 .93-.28 1.69-.85 2.26-.56.57-1.23.85-2.01.85-.77 0-1.44-.28-2.01-.85a3.1 3.1 0 0 1-.85-2.26zm-.37-3.29a4.53 4.53 0 0 0-1.27 3.29c0 1.31.42 2.4 1.27 3.28a4.3 4.3 0 0 0 3.23 1.31c1.31 0 2.39-.44 3.24-1.31a4.57 4.57 0 0 0 1.27-3.28c0-1.32-.43-2.41-1.27-3.29a4.34 4.34 0 0 0-3.24-1.31 4.3 4.3 0 0 0-3.23 1.31z"/><path id="o" d="M469.64 5608.6c0-.94.29-1.7.85-2.27a2.75 2.75 0 0 1 2.01-.85c.78 0 1.45.28 2.01.85.57.57.85 1.33.85 2.27 0 .93-.28 1.69-.85 2.26-.56.57-1.23.85-2.01.85-.77 0-1.44-.28-2.01-.85a3.1 3.1 0 0 1-.85-2.26zm-.37-3.29a4.53 4.53 0 0 0-1.27 3.29c0 1.31.42 2.4 1.27 3.28a4.3 4.3 0 0 0 3.23 1.31c1.31 0 2.39-.44 3.24-1.31a4.57 4.57 0 0 0 1.27-3.28c0-1.32-.43-2.41-1.27-3.29a4.34 4.34 0 0 0-3.24-1.31 4.3 4.3 0 0 0-3.23 1.31z"/><path id="p" d="M479.47 5610.86a3.13 3.13 0 0 1-.83-2.26c0-.94.28-1.7.83-2.27a2.6 2.6 0 0 1 1.96-.85c.78 0 1.43.28 1.98.84.54.57.81 1.32.81 2.28 0 .95-.27 1.7-.81 2.27-.55.56-1.2.84-1.98.84a2.6 2.6 0 0 1-1.96-.85zm1.84 6.13c1.25 0 2.31-.38 3.18-1.15.87-.77 1.3-1.89 1.3-3.37v-8.19h-1.57v1.2h-.07a3.67 3.67 0 0 0-2.99-1.48 3.9 3.9 0 0 0-2.93 1.32 4.62 4.62 0 0 0-1.23 3.28c0 1.3.41 2.39 1.23 3.27a3.9 3.9 0 0 0 4.7.9c.53-.28.93-.64 1.22-1.06h.07v.83c0 .91-.26 1.64-.78 2.17-.52.54-1.23.8-2.13.8-.58 0-1.08-.15-1.53-.47a2.44 2.44 0 0 1-.92-1.18l-1.5.62c.28.65.75 1.24 1.41 1.75a4 4 0 0 0 2.54.76z"/><path id="q" d="M488 5612.61h1.64V5600H488z"/><path id="r" d="M491.75 5607.56c.17-.64.48-1.14.92-1.52.45-.37.98-.56 1.58-.56.84 0 1.47.22 1.89.67.42.44.65.91.69 1.41zm2.72 5.63c.95 0 1.76-.23 2.41-.68a3.85 3.85 0 0 0 1.41-1.68l-1.46-.6c-.42.99-1.22 1.48-2.4 1.48-.73 0-1.36-.25-1.9-.76a2.92 2.92 0 0 1-.89-2.06h6.92l.02-.29a4.7 4.7 0 0 0-1.17-3.35 4.08 4.08 0 0 0-3.12-1.25c-1.25 0-2.28.45-3.08 1.35a4.71 4.71 0 0 0-1.21 3.25c0 1.32.41 2.42 1.24 3.29.83.87 1.91 1.3 3.23 1.3z"/><path id="s" d="M505.64 5601.55h2.76c.69 0 1.24.23 1.66.69.41.45.62.96.62 1.51a2.2 2.2 0 0 1-.62 1.51c-.42.46-.97.69-1.66.69h-2.76zm0 11.06v-5.11h2.72c1.08 0 2.02-.35 2.81-1.06a3.44 3.44 0 0 0 1.19-2.69c0-1.08-.39-1.97-1.19-2.68a4.07 4.07 0 0 0-2.81-1.07H504v12.61z"/><path id="t" d="M513 5612.61h1.64V5600H513z"/><path id="u" d="M518.27 5611.34a1.13 1.13 0 0 1-.55-1c0-.46.2-.86.6-1.2.41-.34 1.01-.51 1.81-.51.93 0 1.62.19 2.09.56 0 .68-.28 1.27-.83 1.77a2.7 2.7 0 0 1-1.85.75c-.48 0-.9-.12-1.27-.37zm1 1.85c1.26 0 2.22-.49 2.88-1.48h.07v1.2h1.57v-5.21c0-1.18-.37-2.09-1.11-2.73a4.04 4.04 0 0 0-2.78-.97c-.98 0-1.77.22-2.36.66-.6.44-1 .92-1.2 1.43l1.5.64c.14-.39.41-.69.8-.92.38-.22.81-.33 1.29-.33.64 0 1.19.19 1.63.57.44.38.66.89.66 1.52v.25a4.8 4.8 0 0 0-2.38-.53c-1.08 0-1.99.27-2.73.8a2.58 2.58 0 0 0-1.11 2.21c0 .87.31 1.57.94 2.1.62.53 1.4.79 2.33.79z"/><path id="v" d="M527.27 5616.43h-1.7l2.04-4.35L524 5604h1.79l2.61 6.2h.03l2.54-6.2h1.79l-5.49 12.43"/><path id="w" d="M414.01 5606.52v-12.08c0-.49.09-.94.45-1.31.14-.15.23-.19.4-.02 2.75 2.77 5.51 5.53 8.27 8.28 1.78 1.79 3.56 3.58 5.36 5.36.17.17.19.26 0 .44-4.38 4.29-8.76 8.59-13.13 12.9-.26.26-.45.24-.71.04-.47-.35-.64-.83-.64-1.39l-.01-7.16v-5.06h.01"/><path id="x" d="M415 5592c.33 0 .57.09.8.22a9020.4 9020.4 0 0 0 16.79 9.26c.26.14.25.22.05.42a427.78 427.78 0 0 0-3.73 3.66c-.13.13-.22.21-.4.03l-13.37-13.42-.14-.17"/><path id="y" d="M417 5619.32l12.18-12.14c.25-.26.37-.22.6.01a184.1 184.1 0 0 0 3.12 3.13c.18.19.2.26-.05.4l-15.64 8.45c-.09.04-.17.12-.21.15"/><path id="z" d="M440.1 5605.83c-.02.46-.24.78-.57 1.02-.24.17-.51.32-.77.46-1.58.86-3.16 1.71-4.73 2.58-.22.11-.34.11-.52-.07a541.75 541.75 0 0 0-3.38-3.4c-.17-.16-.17-.25 0-.41l3.95-3.88c.15-.15.26-.17.45-.06l4.69 2.59c.48.27.86.61.88 1.17"/></defs><g transform="translate(-413 -5591)"><use fill="#c5c5c5" xlink:href="#a"/><use fill="#c5c5c5" xlink:href="#b"/><use fill="#c5c5c5" xlink:href="#c"/><use fill="#c5c5c5" xlink:href="#d"/><use fill="#c5c5c5" xlink:href="#e"/><use fill="#c5c5c5" xlink:href="#f"/><use fill="#c5c5c5" xlink:href="#g"/><use fill="#c5c5c5" xlink:href="#h"/><use fill="#c5c5c5" xlink:href="#i"/><use fill="#c5c5c5" xlink:href="#j"/><use fill="#c5c5c5" xlink:href="#k"/><use fill="#c5c5c5" xlink:href="#l"/><use fill="#c5c5c5" xlink:href="#m"/><g><use fill="#c5c5c5" xlink:href="#n"/></g><g><use fill="#c5c5c5" xlink:href="#o"/></g><g><use fill="#c5c5c5" xlink:href="#p"/></g><g><use fill="#c5c5c5" xlink:href="#q"/></g><g><use fill="#c5c5c5" xlink:href="#r"/></g><g><use fill="#c5c5c5" xlink:href="#s"/></g><g><use fill="#c5c5c5" xlink:href="#t"/></g><g><use fill="#c5c5c5" xlink:href="#u"/></g><g><use fill="#c5c5c5" xlink:href="#v"/></g><g><use fill="#c5c5c5" xlink:href="#w"/></g><g><use fill="#c5c5c5" xlink:href="#x"/></g><g><use fill="#c5c5c5" xlink:href="#y"/></g><g><use fill="#c5c5c5" xlink:href="#z"/></g></g></svg>