<svg xmlns="http://www.w3.org/2000/svg" xmlns:xlink="http://www.w3.org/1999/xlink" width="95" height="24" viewBox="0 0 95 24"><defs><path id="a" d="M394.5 33.7a6.86 6.86 0 1 1-4.62-8.47 4.8 4.8 0 0 0 5.25-1.85c.15-.22.32-.43.52-.62-1.34-1.22-5.12-2.92-8.44-2.75a11.83 11.83 0 0 0 .57 23.63c3.63 0 7.05-1.69 9.26-4.57 1.58-2.1 2.47-5.66 3.43-8.24 1.53-4.06 3.96-5.91 6.94-5.87a6.88 6.88 0 1 1 0 13.76c-2.14 0-4.18-.9-5.63-2.47a12.66 12.66 0 0 1-2.18 4.16c1.84 1.68 4.71 3.25 7.82 3.25a11.83 11.83 0 0 0 .76-23.63c-5.8-.37-9.92 3.01-11.82 8.57z"/><path id="b" d="M398.33 29H387v.68a4.39 4.39 0 0 0 4.39 4.38h4.94z"/><path id="c" d="M444 23.2v19.9h.37a2.86 2.86 0 0 0 2.86-2.85V20h-.05a3.2 3.2 0 0 0-3.18 3.2z"/><path id="d" d="M423 28.53v14.52h.37a2.86 2.86 0 0 0 2.86-2.86v-5.11a1.5 1.5 0 0 1 1.5-1.49h4.86a3.73 3.73 0 0 0 3.7-3.25h-10.03v-1.79a5.32 5.32 0 0 1 5.33-5.32h6.04a3.24 3.24 0 0 0 3.24-3.23h-9.27a8.58 8.58 0 0 0-8.6 8.53z"/><path id="e" d="M450 22.53v.72h8.16v19.9h.37a2.86 2.86 0 0 0 2.86-2.86V24.74c0-.82.67-1.49 1.49-1.49h4.16c1.4 0 2.53-1.13 2.53-2.53V20h-17.03a2.5 2.5 0 0 0-1.79.74 2.5 2.5 0 0 0-.75 1.79z"/></defs><g transform="translate(-375 -20)"><use fill="#212121" xlink:href="#a"/><use fill="#212121" xlink:href="#b"/><use fill="#212121" xlink:href="#c"/><g><use fill="#212121" xlink:href="#d"/></g><g><use fill="#212121" xlink:href="#e"/></g></g></svg>