<svg xmlns="http://www.w3.org/2000/svg" xmlns:xlink="http://www.w3.org/1999/xlink" width="161" height="41" viewBox="0 0 161 41"><defs><path id="a" d="M1211.45 3237.68a11.7 11.7 0 0 1-13.38 7.99 11.4 11.4 0 0 1-9.46-12.18 11.56 11.56 0 0 1 11.57-10.32c1.16.01 2.31.17 3.42.48a8.26 8.26 0 0 0 8.91-3.05c.26-.37.55-.71.88-1.03-2.27-2.01-8.7-4.84-14.34-4.55-10.87.57-19.31 9.43-19.04 20.01.26 10.58 9.12 19.04 20.01 19.09a19.98 19.98 0 0 0 15.74-7.56c2.69-3.47 4.2-9.37 5.83-13.64 2.6-6.72 6.72-9.78 11.8-9.72 6.47 0 11.71 5.1 11.71 11.39 0 6.29-5.24 11.38-11.71 11.38-3.64 0-7.11-1.48-9.57-4.08a20.37 20.37 0 0 1-3.72 6.88c3.13 2.78 8.02 5.38 13.3 5.38 10.83-.05 19.67-8.42 20.02-18.94.35-10.53-7.93-19.43-18.73-20.16-9.85-.61-16.85 4.98-20.08 14.18z"/><path id="b" d="M1218.26 3231H1199v1.13c0 4 3.34 7.25 7.46 7.25h8.39z"/><path id="c" d="M1296 3220.3v32.93h.63a4.8 4.8 0 0 0 4.87-4.73V3215h-.09a5.37 5.37 0 0 0-5.41 5.3z"/><path id="d" d="M1261 3229.12v24.03h.63a4.8 4.8 0 0 0 4.87-4.73v-8.46c0-.66.26-1.29.74-1.75a2.57 2.57 0 0 1 1.79-.72h8.27a6.3 6.3 0 0 0 6.29-5.38h-17.06v-2.95a8.95 8.95 0 0 1 9.07-8.82h10.27c3.03 0 5.5-2.39 5.5-5.34h-15.76c-8.04-.01-14.57 6.3-14.61 14.12z"/><path id="e" d="M1307 3219.18v1.19h13.86v32.94h.63a4.8 4.8 0 0 0 4.87-4.73v-25.73a2.5 2.5 0 0 1 2.53-2.47h7.06a4.25 4.25 0 0 0 4.31-4.19V3215h-28.94a4.4 4.4 0 0 0-3.05 1.22 4.12 4.12 0 0 0-1.27 2.96z"/></defs><g transform="translate(-1180 -3214)"><use fill="#fff" xlink:href="#a"/><use fill="#fff" xlink:href="#b"/><use fill="#fff" xlink:href="#c"/><g><use fill="#fff" xlink:href="#d"/></g><g><use fill="#fff" xlink:href="#e"/></g></g></svg>