<svg xmlns="http://www.w3.org/2000/svg" xmlns:xlink="http://www.w3.org/1999/xlink" width="24" height="24" viewBox="0 0 24 24"><defs><path id="a" d="M714.87 4911.59v10.69a6.6 6.6 0 0 1-6.59 6.59h-10.69a6.6 6.6 0 0 1-6.59-6.59v-10.69a6.59 6.59 0 0 1 6.59-6.59h10.69a6.6 6.6 0 0 1 6.59 6.59zm-2.12 10.69v-10.69c0-2.47-2-4.47-4.47-4.47h-10.69c-2.47 0-4.47 2-4.47 4.47v10.69c0 2.47 2 4.47 4.47 4.47h10.69c2.47 0 4.47-2 4.47-4.47z"/><path id="b" d="M709.3 4917.15a6.16 6.16 0 1 1-12.32-.02 6.16 6.16 0 0 1 12.32.02zm-2.12 0a4.04 4.04 0 0 0-8.06 0 4.04 4.04 0 0 0 8.06 0z"/><path id="c" d="M709.55 4909a1.56 1.56 0 0 0-1.55 1.55 1.57 1.57 0 0 0 1.55 1.56 1.57 1.57 0 0 0 1.56-1.56c0-.41-.17-.81-.46-1.1a1.6 1.6 0 0 0-1.1-.45z"/></defs><g transform="translate(-691 -4905)"><use fill="#fff" xlink:href="#a"/><use fill="#fff" xlink:href="#b"/><g><use fill="#fff" xlink:href="#c"/></g></g></svg>