<svg xmlns="http://www.w3.org/2000/svg" xmlns:xlink="http://www.w3.org/1999/xlink" width="161" height="48" viewBox="0 0 161 48"><defs><path id="a" d="M1286.52 3247.72a20.67 20.67 0 0 1-12.95-6.28l-.06-.06c-3.95-3.87-5.18-9.26-5.51-13.1a19.88 19.88 0 0 1 6.47-14.89l.04-.04a20.7 20.7 0 0 1 12.01-5.35l.06.49a20.24 20.24 0 0 0-11.73 5.22l-.04.04a19.34 19.34 0 0 0-6.33 14.52c.32 3.74 1.52 9.01 5.36 12.78l.07.07a20.17 20.17 0 0 0 12.64 6.13z"/><path id="c" d="M1265 3251v-46h25v46zm21.55-3.75a20.17 20.17 0 0 1-12.64-6.13l-.07-.07c-3.84-3.77-5.04-9.04-5.36-12.78a19.34 19.34 0 0 1 6.33-14.52l.04-.04a20.24 20.24 0 0 1 11.73-5.22l-.06-.49a20.7 20.7 0 0 0-12.01 5.35l-.04.04a19.88 19.88 0 0 0-6.47 14.89c.33 3.84 1.56 9.23 5.51 13.1l.06.06c3.4 3.56 8 5.8 12.95 6.28z"/><path id="f" d="M1211.45 3237.68a11.7 11.7 0 0 1-13.38 7.99 11.4 11.4 0 0 1-9.46-12.18 11.56 11.56 0 0 1 11.57-10.32c1.16.01 2.31.17 3.42.48a8.26 8.26 0 0 0 8.91-3.05c.26-.37.55-.71.88-1.03-2.27-2.01-8.7-4.84-14.34-4.55-10.87.57-19.31 9.43-19.04 20.01.26 10.58 9.12 19.04 20.01 19.09a19.98 19.98 0 0 0 15.74-7.56c2.69-3.47 4.2-9.37 5.83-13.64 2.6-6.72 6.72-9.78 11.8-9.72 6.47 0 11.71 5.1 11.71 11.39 0 6.29-5.24 11.38-11.71 11.38-3.64 0-7.11-1.48-9.57-4.08a20.37 20.37 0 0 1-3.72 6.88c3.13 2.78 8.02 5.38 13.3 5.38 10.83-.05 19.67-8.42 20.02-18.94.35-10.53-7.93-19.43-18.73-20.16-9.85-.61-16.85 4.98-20.08 14.18z"/><path id="g" d="M1296 3220.3v32.93h.63a4.8 4.8 0 0 0 4.87-4.73V3215h-.09a5.37 5.37 0 0 0-5.41 5.3z"/><path id="h" d="M1261 3229.12v24.03h.63a4.8 4.8 0 0 0 4.87-4.73v-8.46c0-.66.26-1.29.74-1.75a2.57 2.57 0 0 1 1.79-.72h8.27a6.3 6.3 0 0 0 6.29-5.38h-17.06v-2.95a8.95 8.95 0 0 1 9.07-8.82h10.27c3.03 0 5.5-2.39 5.5-5.34h-15.76c-8.04-.01-14.57 6.3-14.61 14.12z"/><path id="i" d="M1307 3219.18v1.19h13.86v32.94h.63a4.8 4.8 0 0 0 4.87-4.73v-25.73a2.5 2.5 0 0 1 2.53-2.47h7.06a4.25 4.25 0 0 0 4.31-4.19V3215h-28.94a4.4 4.4 0 0 0-3.05 1.22 4.12 4.12 0 0 0-1.27 2.96z"/><linearGradient id="b" x1="1316.91" x2="1478.55" y1="3255.67" y2="3472.68" gradientUnits="userSpaceOnUse"><stop offset="0"/><stop offset="1"/></linearGradient><filter id="d" width="200%" height="200%" x="-50%" y="-50%"><feGaussianBlur in="SourceGraphic" result="FeGaussianBlur1077Out" stdDeviation="1.5 1.5"/></filter><mask id="e"><use fill="#fff" xlink:href="#a"/></mask></defs><g opacity=".2" transform="translate(-1180 -3207)"><use fill="url(#b)" xlink:href="#a"/><use fill="#fff" fill-opacity=".2" stroke="#fff" stroke-opacity=".2" stroke-width="0" filter="url(#d)" mask="url(&quot;#e&quot;)" xlink:href="#c"/></g><g transform="translate(-1180 -3207)"><use fill="#fff" xlink:href="#f"/></g><g transform="translate(-1180 -3207)"><use fill="#fff" xlink:href="#g"/></g><g transform="translate(-1180 -3207)"><use fill="#fff" xlink:href="#h"/></g><g transform="translate(-1180 -3207)"><use fill="#fff" xlink:href="#i"/></g></svg>