<svg xmlns="http://www.w3.org/2000/svg" xmlns:xlink="http://www.w3.org/1999/xlink" width="48" height="42" viewBox="0 0 48 42"><defs><path id="a" d="M977.81 408.5a4 4 0 0 0-1.91-.5h-36c-.69 0-1.33.19-1.9.5l19.9 12.32z"/><path id="b" d="M984 437a13.01 13.01 0 0 1-26 0 13.01 13.01 0 0 1 26 0zm-4.85-4.62a1 1 0 0 0-1.42.05l-7.49 7.97-5.12-4.97a1.02 1.02 0 0 0-1.42.02 1 1 0 0 0 .02 1.41l5.86 5.69c.18.18.43.28.69.28h.03a1 1 0 0 0 .7-.32l8.19-8.71a1 1 0 0 0-.04-1.42z"/><path id="c" d="M979.4 410l-20.91 12.92a.96.96 0 0 1-.98 0L936.6 410c-.37.61-.6 1.31-.6 2.07v22a4 4 0 0 0 4 4h16.05c-.02-.33-.05-.66-.05-1 0-8.27 6.73-15 15-15 3.38 0 6.49 1.14 9 3.03v-13.03c0-.76-.23-1.46-.6-2.07z"/></defs><g transform="translate(-936 -408)"><use fill="#4caf50" fill-opacity=".4" xlink:href="#a"/><use fill="#4caf50" xlink:href="#b"/><g><use fill="#4caf50" fill-opacity=".4" xlink:href="#c"/></g></g></svg>