<?xml version="1.0" encoding="UTF-8"?>
<svg width="250px" height="250px" viewBox="0 0 250 250" version="1.1" xmlns="http://www.w3.org/2000/svg" xmlns:xlink="http://www.w3.org/1999/xlink">
    <!-- Generator: Sketch 47.1 (45422) - http://www.bohemiancoding.com/sketch -->
    <title>pat_2</title>
    <desc>Created with Sketch.</desc>
    <defs></defs>
    <g id="Symbols" stroke="none" stroke-width="1" fill="none" fill-rule="evenodd" opacity="0.6">
        <g id="pattern_2" fill-rule="nonzero" fill="#169888">
            <g id="pat_2">
                <path d="M71.1,18.28 L72.1,18.2 L72.1,0 L71.1,0 L71.1,17.7 C71.0839534,17.8930004 71.0839534,18.0869996 71.1,18.28 Z" id="Shape"></path>
                <path d="M55,18.09 L97.21,46.62 C100.487271,48.8311254 102.45118,52.5265741 102.45,56.48 L102.45,65.59 L103.45,65.67 C103.466047,65.4769996 103.466047,65.2830004 103.45,65.09 L103.45,56.48 C103.450099,52.181324 101.313846,48.163668 97.75,45.76 L55.57,17.23 C52.6668955,15.2688781 50.927984,11.9934284 50.93,8.49 L50.93,0 L49.93,0 L49.93,8.49 C49.9205627,12.3334771 51.8203715,15.9307483 55,18.09 Z" id="Shape"></path>
                <path d="M39.35,0 L39.35,13.2 C39.3472965,17.0491186 41.2589656,20.6475546 44.45,22.8 L86.67,51.33 C89.9486264,53.5399048 91.9129507,57.2361334 91.91,61.19 L91.91,72.63 L92.91,72.71 C92.9254529,72.5203142 92.9254529,72.3296858 92.91,72.14 L92.91,61.14 C92.9141105,56.8427663 90.7813977,52.8247205 87.22,50.42 L45,21.94 C42.0968955,19.9788781 40.357984,16.7034284 40.36,13.2 L40.36,0 L39.36,0 L39.35,0 Z" id="Shape"></path>
                <path d="M76.94,55.18 L34.72,26.65 C31.8168955,24.6888781 30.077984,21.4134284 30.08,17.91 L30.08,5.57 L29.08,5.49 C29.0645028,5.679684 29.0645028,5.870316 29.08,6.06 L29.08,17.91 C29.0772965,21.7591186 30.9889656,25.3575546 34.18,27.51 L76.35,56 C79.6286264,58.2099048 81.5929507,61.9061334 81.59,65.86 L81.59,80.07 L82.59,80.15 C82.6054972,79.960316 82.6054972,79.769684 82.59,79.58 L82.59,65.9 C82.6030948,61.6102826 80.486192,57.5937873 76.94,55.18 Z" id="Shape"></path>
                <path d="M18.54,12.53 C18.5239534,12.7230004 18.5239534,12.9169996 18.54,13.11 L18.54,22.62 C18.5372965,26.4691186 20.4489656,30.0675546 23.64,32.22 L65.81,60.75 C69.0872705,62.9611254 71.0511804,66.6565741 71.05,70.61 L71.05,100.25 C71.0339534,100.443 71.0339534,100.637 71.05,100.83 L72.05,100.75 L72.05,70.61 C72.0500992,66.311324 69.9138456,62.293668 66.35,59.89 L24.17,31.36 C21.2668955,29.3988781 19.527984,26.1234284 19.53,22.62 L19.53,12.62 L18.54,12.53 Z" id="Shape"></path>
                <polygon id="Shape" points="4.84 0 2.98 0 0 2.02 0 3.27"></polygon>
                <polygon id="Shape" points="0 15.11 22.35 0 20.49 0 0 13.85"></polygon>
                <path d="M4.07,60.34 C7.25967952,58.1863354 9.17093481,54.5886784 9.17,50.74 L9.17,20.1 L8.17,20.02 C8.15450284,20.209684 8.15450284,20.400316 8.17,20.59 L8.17,50.74 C8.17201597,54.2434284 6.43310447,57.5188781 3.53,59.48 L0,61.84 L0,63.1 L4.07,60.34 Z" id="Shape"></path>
                <path d="M14,64.19 L0,73.67 L0,74.93 L14.61,65 C17.8010344,62.8475546 19.7127035,59.2491186 19.71,55.4 L19.71,41.27 C19.7260466,41.0769996 19.7260466,40.8830004 19.71,40.69 L18.71,40.77 L18.71,55.45 C18.6963647,58.9666503 16.929741,62.2448438 14,64.19 Z" id="Shape"></path>
                <path d="M30,60.16 L30,48.31 C30.0160466,48.1169996 30.0160466,47.9230004 30,47.73 L29,47.81 L29,60.16 C29.002016,63.6634284 27.2631045,66.9388781 24.36,68.9 L0,85.35 L0,86.61 L24.93,69.76 C28.1096285,67.6007483 30.0094373,64.0034771 30,60.16 L30,60.16 Z" id="Shape"></path>
                <path d="M40.57,64.86 L40.57,55.36 C40.5854529,55.1703142 40.5854529,54.9796858 40.57,54.79 L39.57,54.87 L39.57,64.87 C39.572016,68.3734284 37.8331045,71.6488781 34.93,73.61 L0,97.18 L0,98.44 L35.47,74.44 C38.6551653,72.2915151 40.5660565,68.7020372 40.57,64.86 Z" id="Shape"></path>
                <path d="M9.17,134.07 L9.17,103.43 L8.17,103.35 C8.15450284,103.539684 8.15450284,103.730316 8.17,103.92 L8.17,134.07 C8.17201597,137.573428 6.43310447,140.848878 3.53,142.81 L0,145.17 L0,146.43 L4.07,143.68 C7.26261647,141.524356 9.17426077,137.922218 9.17,134.07 Z" id="Shape"></path>
                <path d="M19.71,138.78 L19.71,124.6 C19.7260466,124.407 19.7260466,124.213 19.71,124.02 L18.71,124.1 L18.71,138.78 C18.6963647,142.29665 16.929741,145.574844 14,147.52 L0,157 L0,158.26 L14.61,148.38 C17.8010344,146.227555 19.7127035,142.629119 19.71,138.78 Z" id="Shape"></path>
                <path d="M30,143.49 L30,131.65 C30.0160466,131.457 30.0160466,131.263 30,131.07 L29,131.15 L29,143.49 C29.002016,146.993428 27.2631045,150.268878 24.36,152.23 L0,168.68 L0,169.94 L24.93,153.09 C28.1096285,150.930748 30.0094373,147.333477 30,143.49 Z" id="Shape"></path>
                <path d="M40.57,148.2 L40.57,138.69 C40.5854529,138.500314 40.5854529,138.309686 40.57,138.12 L39.57,138.2 L39.57,148.2 C39.572016,151.703428 37.8331045,154.978878 34.93,156.94 L0,180.52 L0,181.78 L35.47,157.78 C38.6551653,155.631515 40.5660565,152.042037 40.57,148.2 L40.57,148.2 Z" id="Shape"></path>
                <path d="M4.07,227 C7.25967952,224.846335 9.17093481,221.248678 9.17,217.4 L9.17,186.77 L8.17,186.69 C8.15450284,186.879684 8.15450284,187.070316 8.17,187.26 L8.17,217.4 C8.17201597,220.903428 6.43310447,224.178878 3.53,226.14 L0,228.5 L0,229.76 L4.07,227 Z" id="Shape"></path>
                <path d="M14.61,231.72 C17.8010344,229.567555 19.7127035,225.969119 19.71,222.12 L19.71,207.93 C19.7260466,207.737 19.7260466,207.543 19.71,207.35 L18.71,207.43 L18.71,222.11 C18.6963647,225.62665 16.929741,228.904844 14,230.85 L0,240.34 L0,241.6 L14.61,231.72 Z" id="Shape"></path>
                <path d="M24.93,236.43 C28.1210344,234.277555 30.0327035,230.679119 30.03,226.83 L30.03,215 C30.0460466,214.807 30.0460466,214.613 30.03,214.42 L29.03,214.5 L29.03,226.84 C29.032016,230.343428 27.2931045,233.618878 24.39,235.58 L3,250 L4.84,250 L24.93,236.43 Z" id="Shape"></path>
                <path d="M35.47,241.13 C38.6610344,238.977555 40.5727035,235.379119 40.57,231.53 L40.57,222 C40.5854972,221.810316 40.5854972,221.619684 40.57,221.43 L39.57,221.51 L39.57,231.51 C39.572016,235.013428 37.8331045,238.288878 34.93,240.25 L20.5,250 L22.36,250 L35.47,241.13 Z" id="Shape"></path>
                <path d="M49.89,61.18 L49.89,91.82 C49.8872965,95.6691186 51.7989656,99.2675546 54.99,101.42 L97.21,130 C100.488626,132.209905 102.452951,135.906133 102.45,139.86 L102.45,148.97 L103.45,148.97 L103.45,139.86 C103.453452,135.573507 101.324205,131.566175 97.77,129.17 L55.55,100.6 C52.6329623,98.6306261 50.8862404,95.339592 50.89,91.82 L50.89,61.18 L49.89,61.18 Z" id="Shape"></path>
                <path d="M39.35,82.35 L39.35,96.53 C39.3472965,100.379119 41.2589656,103.977555 44.45,106.13 L86.67,134.66 C89.9486264,136.869905 91.9129507,140.566133 91.91,144.52 L91.91,156 L92.91,156 L92.91,144.53 C92.9134517,140.243507 90.7842052,136.236175 87.23,133.84 L45,105.31 C42.0829623,103.340626 40.3362404,100.049592 40.34,96.53 L40.34,82.35 L39.34,82.35 L39.35,82.35 Z" id="Shape"></path>
                <path d="M29,89.4 L29,101.24 C28.9972965,105.089119 30.9089656,108.687555 34.1,110.84 L76.32,139.37 C79.5986264,141.579905 81.5629507,145.276133 81.56,149.23 L81.56,163.4 L82.56,163.4 L82.56,149.24 C82.5634517,144.953507 80.4342052,140.946175 76.88,138.55 L34.69,110 C31.7674203,108.041407 30.0096102,104.758162 30,101.24 L30,89.4 L29,89.4 Z" id="Shape"></path>
                <path d="M23.59,115.55 L65.81,144.08 C69.0872705,146.291125 71.0511804,149.986574 71.05,153.94 L71.05,183.58 L72.05,183.58 L72.05,153.95 C72.0534517,149.663507 69.9242052,145.656175 66.37,143.26 L24.15,114.73 C21.2476066,112.770544 19.5028234,109.501884 19.49,106 L19.49,96.44 L18.49,96.44 L18.49,106 C18.5038828,109.831409 20.4136113,113.407469 23.59,115.55 Z" id="Shape"></path>
                <path d="M103.44,232.73 C103.456047,232.537 103.456047,232.343 103.44,232.15 L103.44,223.54 C103.440099,219.241324 101.303846,215.223668 97.74,212.82 L55.57,184.29 C52.6668955,182.328878 50.927984,179.053428 50.93,175.55 L50.93,145.4 C50.9460466,145.207 50.9460466,145.013 50.93,144.82 L49.93,144.9 L49.93,175.54 C49.9272965,179.389119 51.8389656,182.987555 55.03,185.14 L97.25,213.67 C100.527271,215.881125 102.49118,219.576574 102.49,223.53 L102.49,232.64 L103.44,232.73 Z" id="Shape"></path>
                <path d="M92.9,239.77 C92.9154529,239.580314 92.9154529,239.389686 92.9,239.2 L92.9,228.2 C92.9041105,223.902766 90.7713977,219.88472 87.21,217.48 L45,189 C42.0968955,187.038878 40.357984,183.763428 40.36,180.26 L40.36,165.58 L39.36,165.5 C39.3445471,165.689686 39.3445471,165.880314 39.36,166.07 L39.36,180.25 C39.3572965,184.099119 41.2689656,187.697555 44.46,189.85 L86.68,218.38 C89.9586264,220.589905 91.9229507,224.286133 91.92,228.24 L91.92,239.68 L92.9,239.77 Z" id="Shape"></path>
                <path d="M82.58,247.21 C82.5954972,247.020316 82.5954972,246.829684 82.58,246.64 L82.58,233 C82.5841105,228.702766 80.4513977,224.68472 76.89,222.28 L34.72,193.71 C31.8218829,191.757095 30.0801827,188.494684 30.07,185 L30.07,172.63 L29.07,172.55 C29.0545028,172.739684 29.0545028,172.930316 29.07,173.12 L29.07,185 C29.0672965,188.849119 30.9789656,192.447555 34.17,194.6 L76.35,223.1 C79.640411,225.317801 81.6062999,229.03198 81.59,233 L81.59,247.17 L82.58,247.21 Z" id="Shape"></path>
                <path d="M66.4,226.95 L24.18,198.41 C21.2768955,196.448878 19.537984,193.173428 19.54,189.67 L19.54,179.67 L18.54,179.59 C18.5239534,179.783 18.5239534,179.977 18.54,180.17 L18.54,189.68 C18.5372965,193.529119 20.4489656,197.127555 23.64,199.28 L65.86,227.81 C69.1372705,230.021125 71.1011804,233.716574 71.1,237.67 L71.1,250 L72.1,250 L72.1,237.67 C72.1000992,233.371324 69.9638456,229.353668 66.4,226.95 L66.4,226.95 Z" id="Shape"></path>
                <path d="M50.88,228.54 L49.88,228.62 L49.88,250 L50.88,250 L50.88,229.12 C50.8960466,228.927 50.8960466,228.733 50.88,228.54 L50.88,228.54 Z" id="Shape"></path>
                <path d="M39.4,249.23 C39.3845471,249.419686 39.3845471,249.610314 39.4,249.8 L39.4,250 L40.4,250 L40.4,249.31 L39.4,249.23 Z" id="Shape"></path>
                <path d="M196.49,18.28 L197.49,18.2 L197.49,0 L196.49,0 L196.49,17.7 C196.473672,17.8929886 196.473672,18.0870114 196.49,18.28 L196.49,18.28 Z" id="Shape"></path>
                <path d="M211.27,4.67 C207.709957,7.07593863 205.577658,11.0932058 205.58,15.39 L205.58,24 C205.563672,24.1929886 205.563672,24.3870114 205.58,24.58 L206.58,24.5 L206.58,15.4 C206.577049,11.4461334 208.541374,7.74990477 211.82,5.54 L220,0 L218.14,0 L211.27,4.67 Z" id="Shape"></path>
                <path d="M221.81,9.39 C218.248602,11.7947205 216.11589,15.8127663 216.12,20.11 L216.12,31.11 C216.104277,31.2996747 216.104277,31.4903253 216.12,31.68 L217.12,31.6 L217.12,20.11 C217.117049,16.1561334 219.081374,12.4599048 222.36,10.25 L237.56,0 L235.7,0 L221.81,9.39 Z" id="Shape"></path>
                <path d="M232.13,14.09 C228.569957,16.4959386 226.437658,20.5132058 226.44,24.81 L226.44,38.49 C226.423672,38.6829886 226.423672,38.8770114 226.44,39.07 L227.44,38.99 L227.44,24.82 C227.457057,20.8746509 229.431689,17.1951653 232.71,15 L250,3.27 L250,2 L232.13,14.09 Z" id="Shape"></path>
                <path d="M242.67,18.8 C239.114624,21.2124557 236.989842,25.2334269 237,29.53 L237,59.66 L238,59.74 C238.016328,59.5470114 238.016328,59.3529886 238,59.16 L238,29.53 C237.997049,25.5761334 239.961374,21.8799048 243.24,19.67 L250,15.11 L250,13.85 L242.67,18.8 Z" id="Shape"></path>
                <path d="M180.38,18.48 L222.6,47 C225.878626,49.2099048 227.842951,52.9061334 227.84,56.86 L227.84,66 L228.84,66.08 C228.856328,65.8870114 228.856328,65.6929886 228.84,65.5 L228.84,56.87 C228.841869,52.570883 226.705201,48.5524476 223.14,46.15 L181,17.62 C178.096896,15.6588781 176.357984,12.3834284 176.36,8.88 L176.36,0 L175.36,0 L175.36,8.88 C175.341057,12.7136859 177.220719,16.3082604 180.38,18.48 Z" id="Shape"></path>
                <path d="M164.74,0 L164.74,13.59 C164.739065,17.4386784 166.65032,21.0363354 169.84,23.19 L212.06,51.72 C215.338626,53.9299048 217.302951,57.6261334 217.3,61.58 L217.3,73 L218.3,73.08 C218.315723,72.8903253 218.315723,72.6996747 218.3,72.51 L218.3,61.51 C218.30411,57.2127663 216.171398,53.1947205 212.61,50.79 L170.42,22.33 C167.516896,20.3688781 165.777984,17.0934284 165.78,13.59 L165.78,0 L164.78,0 L164.74,0 Z" id="Shape"></path>
                <path d="M208,80.54 C208.015723,80.3503253 208.015723,80.1596747 208,79.97 L208,66.29 C208.002342,61.9932058 205.870043,57.9759386 202.31,55.57 L160.11,27 C157.206896,25.0388781 155.467984,21.7634284 155.47,18.26 L155.47,6 L154.47,5.92 C154.454277,6.10967474 154.454277,6.30032526 154.47,6.49 L154.47,18.3 C154.469065,22.1486784 156.38032,25.7463354 159.57,27.9 L201.79,56.43 C205.055865,58.6479287 207.007916,62.3422135 207,66.29 L207,80.46 L208,80.54 Z" id="Shape"></path>
                <path d="M143.93,12.92 C143.913672,13.1129886 143.913672,13.3070114 143.93,13.5 L143.93,23 C143.929065,26.8486784 145.84032,30.4463354 149.03,32.6 L191.2,61.14 C194.478626,63.3499048 196.442951,67.0461334 196.44,71 L196.44,100.64 C196.423672,100.832989 196.423672,101.027011 196.44,101.22 L197.44,101.14 L197.44,71 C197.440099,66.701324 195.303846,62.683668 191.74,60.28 L149.57,31.75 C146.660155,29.7891719 144.916898,26.5088513 144.92,23 L144.92,13 L143.93,12.92 Z" id="Shape"></path>
                <path d="M205.58,98.73 L205.58,107.34 C205.563672,107.532989 205.563672,107.727011 205.58,107.92 L206.58,107.84 L206.58,98.73 C206.577049,94.7761334 208.541374,91.0799048 211.82,88.87 L250,63.09 L250,61.84 L211.27,88 C207.70702,90.407919 205.574332,94.4296666 205.58,98.73 L205.58,98.73 Z" id="Shape"></path>
                <path d="M216.12,103.44 L216.12,114.44 C216.104277,114.629675 216.104277,114.820325 216.12,115.01 L217.12,114.93 L217.12,103.44 C217.117049,99.4861334 219.081374,95.7899048 222.36,93.58 L250,74.93 L250,73.67 L221.81,92.72 C218.248602,95.1247205 216.11589,99.1427663 216.12,103.44 Z" id="Shape"></path>
                <path d="M226.43,108.15 L226.43,121.83 C226.413672,122.022989 226.413672,122.217011 226.43,122.41 L227.43,122.33 L227.43,108.15 C227.427049,104.196133 229.391374,100.499905 232.67,98.29 L250,86.61 L250,85.35 L232.13,97.43 C228.566154,99.833668 226.429901,103.851324 226.43,108.15 L226.43,108.15 Z" id="Shape"></path>
                <path d="M237,112.86 L237,143 L238,143.08 C238.016328,142.887011 238.016328,142.692989 238,142.5 L238,112.86 C237.997049,108.906133 239.961374,105.209905 243.24,103 L250,98.44 L250,97.18 L242.67,102.18 C239.129276,104.582524 237.006425,108.581121 237,112.86 L237,112.86 Z" id="Shape"></path>
                <path d="M223.16,129.13 L180.94,100.6 C178.022962,98.6306261 176.27624,95.339592 176.28,91.82 L176.28,61.18 L175.28,61.18 L175.28,91.82 C175.279065,95.6686784 177.19032,99.2663354 180.38,101.42 L222.6,130 C225.878626,132.209905 227.842951,135.906133 227.84,139.86 L227.84,148.97 L228.84,148.97 L228.84,139.86 C228.856798,135.559354 226.725988,131.534073 223.16,129.13 Z" id="Shape"></path>
                <path d="M164.74,82.35 L164.74,96.53 C164.739065,100.378678 166.65032,103.976335 169.84,106.13 L212.06,134.66 C215.338626,136.869905 217.302951,140.566133 217.3,144.52 L217.3,156 L218.3,156 L218.3,144.53 C218.303452,140.243507 216.174205,136.236175 212.62,133.84 L170.4,105.31 C167.482962,103.340626 165.73624,100.049592 165.74,96.53 L165.74,82.35 L164.74,82.35 Z" id="Shape"></path>
                <path d="M207,149.24 L207,163.4 L208,163.4 L208,149.24 C208.003452,144.953507 205.874205,140.946175 202.32,138.55 L160.08,110 C157.162962,108.030626 155.41624,104.739592 155.42,101.22 L155.42,89.4 L154.42,89.4 L154.42,101.24 C154.419065,105.088678 156.33032,108.686335 159.52,110.84 L201.74,139.37 C205.027816,141.578552 207.000029,145.279263 207,149.24 Z" id="Shape"></path>
                <path d="M197.44,183.59 L197.44,153.95 C197.443452,149.663507 195.314205,145.656175 191.76,143.26 L149.54,114.73 C146.625899,112.762606 144.879566,109.476052 144.88,105.96 L144.88,96.44 L143.88,96.44 L143.88,106 C143.879065,109.848678 145.79032,113.446335 148.98,115.6 L191.2,144.13 C194.478626,146.339905 196.442951,150.036133 196.44,153.99 L196.44,183.63 L197.44,183.63 L197.44,183.59 Z" id="Shape"></path>
                <path d="M205.58,182.07 L205.58,190.68 C205.563672,190.872989 205.563672,191.067011 205.58,191.26 L206.58,191.18 L206.58,182.07 C206.577049,178.116133 208.541374,174.419905 211.82,172.21 L250,146.43 L250,145.17 L211.27,171.34 C207.70702,173.747919 205.574332,177.769667 205.58,182.07 L205.58,182.07 Z" id="Shape"></path>
                <path d="M216.12,186.77 L216.12,197.77 C216.104277,197.959675 216.104277,198.150325 216.12,198.34 L217.12,198.26 L217.12,186.77 C217.117049,182.816133 219.081374,179.119905 222.36,176.91 L250,158.26 L250,157 L221.81,176.05 C218.248602,178.45472 216.11589,182.472766 216.12,186.77 Z" id="Shape"></path>
                <path d="M232.71,181.62 L250,169.94 L250,168.68 L232.13,180.76 C228.569957,183.165939 226.437658,187.183206 226.44,191.48 L226.44,205.16 C226.423672,205.352989 226.423672,205.547011 226.44,205.74 L227.44,205.66 L227.44,191.48 C227.443763,187.520472 229.419961,183.82307 232.71,181.62 L232.71,181.62 Z" id="Shape"></path>
                <path d="M242.67,185.47 C239.117561,187.880472 236.993166,191.896964 237,196.19 L237,226.33 L238,226.41 C238.016328,226.217011 238.016328,226.022989 238,225.83 L238,196.19 C237.997049,192.236133 239.961374,188.539905 243.24,186.33 L249.99,181.77 L249.99,180.51 L242.67,185.47 Z" id="Shape"></path>
                <path d="M228.83,232.73 C228.846328,232.537011 228.846328,232.342989 228.83,232.15 L228.83,223.54 C228.830099,219.241324 226.693846,215.223668 223.13,212.82 L181,184.29 C178.096896,182.328878 176.357984,179.053428 176.36,175.55 L176.36,145.4 C176.376328,145.207011 176.376328,145.012989 176.36,144.82 L175.36,144.9 L175.36,175.54 C175.359065,179.388678 177.27032,182.986335 180.46,185.14 L222.68,213.67 C225.958626,215.879905 227.922951,219.576133 227.92,223.53 L227.92,232.64 L228.83,232.73 Z" id="Shape"></path>
                <path d="M218.29,239.77 C218.305723,239.580325 218.305723,239.389675 218.29,239.2 L218.29,228.2 C218.29411,223.902766 216.161398,219.88472 212.6,217.48 L170.42,189 C167.516896,187.038878 165.777984,183.763428 165.78,180.26 L165.78,165.58 L164.78,165.5 C164.764277,165.689675 164.764277,165.880325 164.78,166.07 L164.78,180.25 C164.779065,184.098678 166.69032,187.696335 169.88,189.85 L212.1,218.38 C215.378626,220.589905 217.342951,224.286133 217.34,228.24 L217.34,239.68 L218.29,239.77 Z" id="Shape"></path>
                <path d="M208,247.21 C208.015723,247.020325 208.015723,246.829675 208,246.64 L208,233 C208.00411,228.702766 205.871398,224.68472 202.31,222.28 L160.09,193.75 C157.186896,191.788878 155.447984,188.513428 155.45,185.01 L155.45,172.63 L154.45,172.55 C154.434277,172.739675 154.434277,172.930325 154.45,173.12 L154.45,185 C154.449065,188.848678 156.36032,192.446335 159.55,194.6 L201.77,223.13 C205.046406,225.345376 207.00675,229.044917 207,233 L207,247.17 L208,247.21 Z" id="Shape"></path>
                <path d="M191.79,226.95 L149.57,198.42 C146.666896,196.458878 144.927984,193.183428 144.93,189.68 L144.93,179.68 L143.93,179.6 C143.913672,179.792989 143.913672,179.987011 143.93,180.18 L143.93,189.69 C143.929065,193.538678 145.84032,197.136335 149.03,199.29 L191.25,227.82 C194.528626,230.029905 196.492951,233.726133 196.49,237.68 L196.49,250 L197.49,250 L197.49,237.67 C197.490099,233.371324 195.353846,229.353668 191.79,226.95 L191.79,226.95 Z" id="Shape"></path>
                <polygon id="Shape" points="250 228.5 218.19 250 220.05 250 250 229.76"></polygon>
                <polygon id="Shape" points="235.7 250 237.56 250 250 241.59 250 240.34"></polygon>
                <path d="M176.27,228.54 L175.27,228.62 L175.27,250 L176.27,250 L176.27,229.12 C176.286328,228.927011 176.286328,228.732989 176.27,228.54 L176.27,228.54 Z" id="Shape"></path>
                <path d="M164.79,249.23 C164.774277,249.419675 164.774277,249.610325 164.79,249.8 L164.79,250 L165.79,250 L165.79,249.31 L164.79,249.23 Z" id="Shape"></path>
                <path d="M86.27,4.67 C82.7070201,7.07791901 80.574332,11.0996666 80.58,15.4 L80.58,24 C80.5645028,24.189684 80.5645028,24.380316 80.58,24.57 L81.58,24.49 L81.58,15.4 C81.5770493,11.4461334 83.5413736,7.74990477 86.82,5.54 L95,0 L93.19,0 L86.27,4.67 Z" id="Shape"></path>
                <path d="M96.81,9.39 C93.2486023,11.7947205 91.1158895,15.8127663 91.12,20.11 L91.12,31.11 C91.1045471,31.2996858 91.1045471,31.4903142 91.12,31.68 L92.12,31.6 L92.12,20.11 C92.1188196,16.1565741 94.0827295,12.4611254 97.36,10.25 L112.56,0 L110.7,0 L96.81,9.39 Z" id="Shape"></path>
                <path d="M101.43,24.82 L101.43,38.49 C101.413953,38.6830004 101.413953,38.8769996 101.43,39.07 L102.43,38.99 L102.43,24.82 C102.451056,20.8732125 104.429229,17.1941101 107.71,15 L129.84,0 L128,0 L107.13,14.09 C103.563217,16.495647 101.426574,20.5177838 101.43,24.82 L101.43,24.82 Z" id="Shape"></path>
                <path d="M112,29.53 L112,59.66 L113,59.74 C113.015497,59.550316 113.015497,59.359684 113,59.17 L113,29.53 C112.997049,25.5761334 114.961374,21.8799048 118.24,19.67 L147.35,0 L145.49,0 L117.67,18.8 C114.114624,21.2124557 111.989842,25.2334269 112,29.53 Z" id="Shape"></path>
                <path d="M133.13,20.2 L133.13,50.35 C133.132016,53.8534284 131.393104,57.1288781 128.49,59.09 L86.27,87.62 C82.7099571,90.0259386 80.5776577,94.0432058 80.58,98.34 L80.58,107 C80.5645028,107.189684 80.5645028,107.380316 80.58,107.57 L81.58,107.49 L81.58,98.39 C81.5788196,94.4365741 83.5427295,90.7411254 86.82,88.53 L129.04,60 C132.22968,57.8463354 134.140935,54.2486784 134.14,50.4 L134.14,19.71 L133.14,19.63 C133.120947,19.8193988 133.117603,20.0100495 133.13,20.2 Z" id="Shape"></path>
                <path d="M143.68,55.06 C143.673059,58.5709711 141.918321,61.847983 139,63.8 L96.81,92.33 C93.2486023,94.7347205 91.1158895,98.7527663 91.12,103.05 L91.12,114.05 C91.1045471,114.239686 91.1045471,114.430314 91.12,114.62 L92.12,114.54 L92.12,103.05 C92.1170493,99.0961334 94.0813736,95.3999048 97.36,93.19 L139.58,64.66 C142.771034,62.5075546 144.682704,58.9091186 144.68,55.06 L144.68,40.88 C144.695723,40.6903253 144.695723,40.4996747 144.68,40.31 L143.68,40.39 L143.68,55.06 Z" id="Shape"></path>
                <path d="M154,47.43 L154,59.77 C154.002016,63.2734284 152.263104,66.5488781 149.36,68.51 L107.13,97 C103.568602,99.4047205 101.43589,103.422766 101.44,107.72 L101.44,121.4 C101.423953,121.593 101.423953,121.787 101.44,121.98 L102.44,121.9 L102.44,107.76 C102.43882,103.806574 104.402729,100.111125 107.68,97.9 L149.9,69.37 C153.08968,67.2163354 155.000935,63.6186784 155,59.77 L155,47.92 C155.016328,47.7270114 155.016328,47.5329886 155,47.34 L154,47.43 Z" id="Shape"></path>
                <path d="M164.53,54.48 L164.53,64.48 C164.532016,67.9834284 162.793104,71.2588781 159.89,73.22 L117.67,101.75 C114.117561,104.160472 111.993166,108.176964 112,112.47 L112,142.6 L113,142.68 C113.015497,142.490316 113.015497,142.299684 113,142.11 L113,112.47 C112.997049,108.516133 114.961374,104.819905 118.24,102.61 L160.46,74.08 C163.651034,71.9275546 165.562704,68.3291186 165.56,64.48 L165.56,55 C165.575723,54.8103253 165.575723,54.6196747 165.56,54.43 L164.53,54.48 Z" id="Shape"></path>
                <path d="M81.62,191.17 L81.62,182.07 C81.6170493,178.116133 83.5813736,174.419905 86.86,172.21 L129.08,143.68 C132.26968,141.526335 134.180935,137.928678 134.18,134.08 L134.18,103.43 L133.18,103.35 C133.164277,103.539675 133.164277,103.730325 133.18,103.92 L133.18,134.07 C133.182016,137.573428 131.443104,140.848878 128.54,142.81 L86.27,171.34 C82.7099571,173.745939 80.5776577,177.763206 80.58,182.06 L80.58,190.67 C80.5645028,190.859684 80.5645028,191.050316 80.58,191.24 L81.62,191.17 Z" id="Shape"></path>
                <path d="M92.16,198.22 L92.16,186.77 C92.1588196,182.816574 94.1227295,179.121125 97.4,176.91 L139.62,148.38 C142.80968,146.226335 144.720935,142.628678 144.72,138.78 L144.72,124.6 C144.735723,124.410325 144.735723,124.219675 144.72,124.03 L143.72,124.11 L143.72,138.78 C143.722016,142.283428 141.983104,145.558878 139.08,147.52 L96.81,176.05 C93.2486023,178.45472 91.1158895,182.472766 91.12,186.77 L91.12,197.77 C91.1045471,197.959686 91.1045471,198.150314 91.12,198.34 L92.16,198.22 Z" id="Shape"></path>
                <path d="M107.71,181.62 L149.93,153.09 C153.11968,150.936335 155.030935,147.338678 155.03,143.49 L155.03,131.65 C155.046328,131.457011 155.046328,131.262989 155.03,131.07 L154.03,131.15 L154.03,143.49 C154.032016,146.993428 152.293104,150.268878 149.39,152.23 L107.17,180.76 C103.608602,183.16472 101.47589,187.182766 101.48,191.48 L101.48,205.16 C101.463953,205.353 101.463953,205.547 101.48,205.74 L102.48,205.66 L102.48,191.48 C102.476576,187.528456 104.436532,183.833396 107.71,181.62 L107.71,181.62 Z" id="Shape"></path>
                <path d="M113,225.84 L113,196.19 C112.997049,192.236133 114.961374,188.539905 118.24,186.33 L160.46,157.8 C163.651034,155.647555 165.562704,152.049119 165.56,148.2 L165.56,138.69 C165.575723,138.500325 165.575723,138.309675 165.56,138.12 L164.56,138.2 L164.56,148.2 C164.562016,151.703428 162.823104,154.978878 159.92,156.94 L117.7,185.47 C114.136154,187.873668 111.999901,191.891324 112,196.19 L112,226.32 L113,226.4 C113.014915,226.213631 113.014915,226.026369 113,225.84 L113,225.84 Z" id="Shape"></path>
                <path d="M134.17,217.4 L134.17,186.77 L133.17,186.69 C133.154277,186.879675 133.154277,187.070325 133.17,187.26 L133.17,217.4 C133.172016,220.903428 131.433104,224.178878 128.53,226.14 L93.19,250 L95.05,250 L129.05,227 C132.247286,224.850882 134.166452,221.252446 134.17,217.4 Z" id="Shape"></path>
                <path d="M144.72,222.11 L144.72,207.93 C144.735723,207.740325 144.735723,207.549675 144.72,207.36 L143.72,207.44 L143.72,222.11 C143.722016,225.613428 141.983104,228.888878 139.08,230.85 L110.7,250 L112.56,250 L139.62,231.72 C142.812616,229.564356 144.724261,225.962218 144.72,222.11 Z" id="Shape"></path>
                <path d="M149.93,236.43 C153.11968,234.276335 155.030935,230.678678 155.03,226.83 L155.03,215 C155.046328,214.807011 155.046328,214.612989 155.03,214.42 L154.03,214.5 L154.03,226.84 C154.032016,230.343428 152.293104,233.618878 149.39,235.58 L128,250 L129.86,250 L149.93,236.43 Z" id="Shape"></path>
                <path d="M160.47,241.13 C163.661034,238.977555 165.572704,235.379119 165.57,231.53 L165.57,222 C165.585723,221.810325 165.585723,221.619675 165.57,221.43 L164.57,221.51 L164.57,231.51 C164.572016,235.013428 162.833104,238.288878 159.93,240.25 L145.5,250 L147.36,250 L160.47,241.13 Z" id="Shape"></path>
            </g>
        </g>
    </g>
</svg>