<?xml version="1.0" encoding="UTF-8"?>
<svg width="250px" height="250px" viewBox="0 0 250 250" version="1.1" xmlns="http://www.w3.org/2000/svg" xmlns:xlink="http://www.w3.org/1999/xlink">
    <!-- Generator: Sketch 47.1 (45422) - http://www.bohemiancoding.com/sketch -->
    <title>pattern_1</title>
    <desc>Created with Sketch.</desc>
    <defs></defs>
    <g id="Symbols" stroke="none" stroke-width="1" fill="none" fill-rule="evenodd" opacity="0.03">
        <g id="pattern_1" fill="#212121">
            <g id="pat_1">
                <path d="M148.999338,80.1958282 C150.185481,77.56422 150.913377,74.7493457 151.151623,71.8726419 C151.353033,69.6069802 151.378785,67.7700576 151.333282,63.826572 C151.333315,60.8371081 151.34163,59.5200391 151.383142,57.9260653 L150.383559,57.9000356 C150.341744,59.5056778 150.333394,60.828292 150.333394,63.8323401 C150.378549,67.7485325 150.353118,69.5625608 150.155371,71.7871157 C149.926265,74.5533429 149.227083,77.2571768 148.087731,79.7849741 L148.999338,80.1958282 Z" id="Shape"></path>
                <path d="M54.722725,23.7566753 C57.2584147,23.2293599 59.8411956,22.9615026 62.4311355,22.9572445 C66.5525313,22.928292 70.6394098,23.6801396 74.4781353,25.172979 C88.5748867,29.980284 98.10101,42.8264788 98.5977522,57.5100034 C98.7079752,59.2191938 98.715293,60.4766981 98.6723022,63.5319592 C98.6698919,63.7033914 98.6698919,63.7033914 98.6675082,63.8754549 C98.5824416,68.8925062 98.6507508,71.1533399 99.1292772,73.9701545 C99.3968733,75.5453412 99.7857387,77.0328093 100.318727,78.464971 C102.625001,84.6984741 107.179427,89.8451634 113.08706,92.8931922 C116.865127,94.8482202 121.068401,95.8394513 125.322531,95.7784552 C126.513576,95.779059 127.711074,95.7112149 128.901786,95.5753051 C132.912474,95.0055844 136.715037,93.4874207 140.004148,91.1464125 L139.424311,90.3318101 C136.265462,92.5801052 132.613496,94.0381436 128.774745,94.5836232 C127.635474,94.7134712 126.475991,94.7791616 125.315594,94.7786266 C121.218826,94.8373117 117.178344,93.8844706 113.546088,92.0048955 C107.859679,89.0710069 103.476215,84.1175116 101.256193,78.1171359 C100.745559,76.7450393 100.372511,75.3180741 100.115076,73.8026988 C99.6502834,71.0667285 99.5832558,68.8483145 99.66604,63.9657341 C99.6697153,63.7173846 99.6697153,63.7173846 99.6721245,63.5460266 C99.7155204,60.4619763 99.7081019,59.1871761 99.5961672,57.5881749 C99.0863115,42.3774156 89.2907842,29.1679235 74.9906396,24.2938221 C70.8840886,22.7024594 66.6718457,21.9275489 62.4268004,21.9573775 C59.7716988,21.9617355 57.1212527,22.2366103 54.5191315,22.7777406 L54.722725,23.7566753 Z" id="Shape"></path>
                <path d="M139.994208,61.9925609 L139.994208,63.7523497 C139.994208,67.0205739 139.979096,68.519942 139.904594,70.4320824 C139.437648,76.5220776 135.390329,81.7712035 129.601288,83.7775167 C128.182342,84.2267172 126.688869,84.4549678 125.187071,84.4498689 C120.863593,84.4684086 116.743714,82.6323367 113.86952,79.4077846 C111.366463,76.4842711 109.990128,72.7511166 109.996568,68.8925674 C109.996569,66.3787012 109.996569,66.3787012 109.996569,63.8923329 L109.996569,56.8931728 C109.881783,54.412852 109.570778,51.9688592 109.066002,49.5614498 C106.986301,39.6216792 101.832817,30.5875494 94.3350448,23.7380076 C92.4818429,22.0482583 90.4937978,20.5133345 88.390475,19.1482926 C84.1506144,16.4321215 79.519706,14.3876547 74.6587377,13.0854608 C68.7855394,11.6084603 62.7005555,11.2114811 56.6928587,11.911935 L56.8086625,12.9050869 C62.696037,12.2186617 68.6591505,12.6076902 74.4074268,14.0532154 C79.161587,15.3268579 83.6978326,17.3295327 87.8485911,19.9886125 C89.9036563,21.3223458 91.848436,22.8238655 93.6609634,24.4765274 C101.003504,31.1842583 106.050533,40.0317711 108.087316,49.7664218 C108.581173,52.1217508 108.885423,54.5126595 108.997187,56.9163921 C108.996648,58.6429628 108.996648,58.6429628 108.996648,60.3927529 L108.996648,68.891733 C108.989809,72.9885152 110.451419,76.9529679 113.116516,80.0655792 C116.187985,83.5116014 120.581246,85.4695095 125.187519,85.4497414 C126.789046,85.4551937 128.385517,85.2112017 129.91597,84.7264966 C136.093933,82.5855854 140.404236,76.9953856 140.902675,70.4897359 C140.978926,68.5417525 140.994129,67.0333396 140.994129,63.7523497 L140.994129,61.9925609 L139.994208,61.9925609 Z" id="Combined-Shape-Copy" fill-rule="nonzero"></path>
                <path d="M132.952688,104.340202 C132.293847,104.491729 131.635066,104.626773 130.976341,104.745339 C129.026032,105.097048 127.04809,105.271759 125.06649,105.267369 C114.18165,105.175476 103.914511,100.183403 97.1182229,91.6769086 C92.490438,85.8913931 89.7781297,78.8093557 89.3573868,71.4130348 L89.3581937,59.8528177 C89.3699244,55.155775 88.1892418,50.5313337 85.9266728,46.4136547 C82.4325174,39.9507803 76.4691696,35.1744203 69.3957832,33.1748755 C65.1961712,32.2519519 60.8831661,32.1897477 56.6876697,32.9847851 C53.688449,33.7077665 50.8549312,34.919622 48.2809527,36.5750834 L48.659467,37.5096204 C51.3017597,35.8210829 54.0317134,34.6535203 56.8980219,33.9619771 C60.9367842,33.1972629 65.1135174,33.2575017 69.1525592,34.1442701 C75.9371996,36.0631063 81.6813873,40.6639293 85.0486962,46.8921619 C87.2314176,50.8645493 88.3695837,55.3224641 88.358274,59.8515693 C88.3582724,61.7325921 88.3582724,61.7325921 88.3582724,63.6323641 L88.3582724,71.441427 C88.791611,79.0733781 91.5799156,86.3538475 96.3371829,92.3012377 C103.321191,101.04269 113.872188,106.172779 125.061162,106.26723 C127.106125,106.27177 129.144204,106.091747 131.153643,105.729375 C131.827983,105.607999 132.502431,105.469743 133.176818,105.31464 L132.952688,104.340202 Z" id="Shape"></path>
                <path d="M37.7653494,49.2010266 C36.2056647,52.7101724 35.5511724,56.9901284 35.7226538,62.5479134 L35.722416,62.6624805 L35.722416,70.9714834 L36.7223373,70.9714834 L36.7223373,62.5324961 C36.5549106,57.0984144 37.187182,52.9637687 38.679089,49.6071164 L37.7653494,49.2010266 Z" id="Shape"></path>
                <path d="M130.689708,115.250443 C128.74204,115.506725 126.779716,115.635559 124.815259,115.636124 C121.904503,115.633774 118.999656,115.362181 116.138379,114.824813 C107.735263,113.194674 99.9600592,109.224958 93.7095971,103.372616 C85.7695386,95.9847223 80.6577096,86.0588769 79.2547872,75.3062777 C78.8964282,72.0951584 78.7570913,68.8540485 78.8388626,65.6147434 L78.8390218,63.8023437 L78.8390218,61.6126065 C78.9741451,59.4501351 78.7880926,57.2486047 78.2858332,55.1091194 C76.7298516,49.432828 72.366801,44.9764674 66.742373,43.3055096 C65.4238962,42.9294105 64.0645506,42.7412012 62.6989481,42.7448724 C58.494083,42.7887493 54.4577731,44.3848605 51.3630358,47.2260187 C48.1253913,50.3260658 46.2692013,54.5839899 46.2016481,59.0553606 C46.2015911,60.2477703 46.2015911,60.2477703 46.2015911,61.4326281 L46.2015911,66.7519898 L47.2015123,66.7519898 L47.2015123,59.0629125 C47.2649683,54.8665202 49.0101421,50.8632566 52.0469431,47.955374 C54.9521882,45.288331 58.7513471,43.7859984 62.705511,43.7447234 C63.9735761,43.7413294 65.2396882,43.91663 66.462846,44.2655102 C71.7507871,45.8365325 75.8568854,50.0304455 77.3169368,55.3555637 C77.7923109,57.3820241 77.9700944,59.4857086 77.8400598,61.5816504 C77.8391005,62.7074751 77.8391005,62.7074751 77.8391005,63.8023437 L77.8391005,65.6021277 C77.7563407,68.8742811 77.8976333,72.1608802 78.2621532,75.4264153 C79.6963164,86.4191235 84.917912,96.5581072 93.0273011,104.103553 C99.4139939,110.083451 107.360082,114.140413 115.950876,115.806952 C118.875678,116.356259 121.842042,116.633604 124.814999,116.636004 C126.823532,116.635427 128.829338,116.503738 130.820162,116.241777 L130.689708,115.250443 Z" id="Shape"></path>
                <path d="M249.989588,84.3998883 C245.741993,84.3655736 241.706725,82.5378274 238.879594,79.3676948 C236.376622,76.4442759 235.000287,72.7111214 235.006727,68.8525722 C235.006728,66.338706 235.006728,66.338706 235.006728,63.8523377 L235.006728,56.8531776 C234.891942,54.3728568 234.580937,51.928864 234.076161,49.5214546 C231.982882,39.5929436 226.82276,30.5737055 219.324839,23.7376729 C217.472003,22.0482583 215.483958,20.5133345 213.380636,19.1482926 C209.140775,16.4321215 204.509867,14.3876547 199.648898,13.0854608 C193.7757,11.6084603 187.690716,11.2114811 181.683019,11.911935 L181.798823,12.9050869 C187.686198,12.2186617 193.649311,12.6076902 199.397587,14.0532154 C204.151748,15.3268579 208.687993,17.3295327 212.838752,19.9886125 C214.893817,21.3223458 216.838597,22.8238655 218.651124,24.4765274 C225.994177,31.1713628 231.047707,40.0042915 233.097633,49.7271786 C233.591332,52.0817556 233.895582,54.4726643 234.007346,56.8763969 C234.006807,58.6029676 234.006807,58.6029676 234.006807,60.3527577 L234.006807,68.8517378 C233.999968,72.94852 235.461578,76.9129727 238.126675,80.025584 C241.148291,83.4139498 245.451683,85.3631409 249.98151,85.3997357 L249.989588,84.3998883 Z" id="Shape"></path>
                <path d="M179.712886,23.7566753 C182.248575,23.2293599 184.831356,22.9615026 187.421296,22.9572445 C191.542692,22.928292 195.62957,23.6801396 199.468296,25.172979 C213.565047,29.980284 223.091171,42.8264788 223.587913,57.5100034 C223.698136,59.2191938 223.705454,60.4766981 223.662463,63.5319592 C223.660052,63.7033914 223.660052,63.7033914 223.657669,63.8754549 C223.572602,68.8925062 223.640911,71.1533399 224.119438,73.9701545 C224.387034,75.5453412 224.775899,77.0328093 225.308888,78.464971 C227.615161,84.6984741 232.169588,89.8451634 238.077221,92.8931922 C241.756169,94.7999706 245.84226,95.7899673 249.986932,95.7785047 L249.984166,94.7786285 C246.000578,94.7896456 242.073293,93.8381253 238.536538,92.0050453 C232.84984,89.0710069 228.466375,84.1175116 226.246354,78.1171359 C225.73572,76.7450393 225.362672,75.3180741 225.105236,73.8026988 C224.640444,71.0667285 224.573416,68.8483145 224.656201,63.9657341 C224.659876,63.7173846 224.659876,63.7173846 224.662285,63.5460266 C224.705681,60.4619763 224.698262,59.1871761 224.586328,57.5881749 C224.076472,42.3774156 214.280945,29.1679235 199.9808,24.2938221 C195.874249,22.7024594 191.662006,21.9275489 187.416961,21.9573775 C184.761859,21.9617355 182.111413,22.2366103 179.509292,22.7777406 L179.712886,23.7566753 Z" id="Shape"></path>
                <path d="M173.649628,37.5096204 C176.289765,35.8369675 179.016189,34.6827628 181.876622,34.0023462 C185.916945,33.2372581 190.093679,33.2974969 194.132721,34.1842653 C200.917361,36.1031015 206.661549,40.7039245 210.028857,46.9321571 C212.211579,50.9045445 213.349745,55.3624593 213.338435,59.8915645 C213.338434,61.7725873 213.338434,61.7725873 213.338434,63.6723593 L213.338434,71.4514258 C213.77677,79.0813314 216.568547,86.3580731 221.327501,92.3014343 C228.2957,101.023514 238.816334,106.151506 249.980367,106.267221 L249.990731,105.267395 C239.127049,105.154793 228.889455,100.164761 222.108391,91.6769176 C217.4788,85.8951159 214.763115,78.8167045 214.337529,71.4226989 L214.338355,59.8928129 C214.350086,55.1957702 213.169403,50.5713289 210.906834,46.4536499 C207.412679,39.9907755 201.449331,35.2144155 194.375944,33.2148707 C190.176333,32.2919471 185.863327,32.2297429 181.667831,33.0247803 C178.676269,33.735839 175.846415,34.9338299 173.27286,36.573965 L173.649628,37.5096204 Z" id="Shape"></path>
                <path d="M161.652503,70.991481 L161.652503,62.5224973 C161.534389,57.0938923 162.166301,52.9639834 163.611921,49.5910087 L162.692848,49.1971367 C161.184828,52.7157056 160.531825,56.9834556 160.6527,62.5333827 L160.652581,62.6824781 L160.652581,70.991481 L161.652503,70.991481 Z" id="Shape"></path>
                <path d="M172.161675,66.7519898 L172.161675,59.0529137 C172.225131,54.8565214 173.970305,50.8532578 177.007106,47.9453752 C179.912351,45.2783322 183.71151,43.7759996 187.665674,43.7347246 C188.933739,43.7313306 190.199851,43.9066312 191.423009,44.2555114 C196.71095,45.8265337 200.817048,50.0204467 202.2771,55.3455649 C202.752474,57.3720253 202.930257,59.4757098 202.800223,61.5716516 C202.799263,61.9675639 202.799263,61.9675639 202.799263,62.3325201 L202.799263,65.6021277 C202.716504,68.8742811 202.857796,72.1608802 203.222316,75.4264153 C204.661017,86.4121611 209.882257,96.5433073 217.987496,104.083585 C224.374157,110.063454 232.320245,114.120416 240.911039,115.786954 C243.83584,116.336262 246.802205,116.613607 249.775162,116.616006 L249.985549,115.616126 C246.864666,115.613777 243.959819,115.342183 241.098542,114.804815 C232.695426,113.174676 224.920222,109.20496 218.66976,103.352619 C210.733734,95.9697549 205.622253,86.0515822 204.214918,75.3060359 C203.856591,72.0951584 203.717254,68.8540485 203.799025,65.6147434 L203.799185,63.7923449 L203.799185,61.6026077 C203.934308,59.4401363 203.748256,57.2386059 203.245996,55.0991206 C201.690015,49.4228292 197.326964,44.9664686 191.702536,43.2955108 C190.384059,42.9194117 189.024714,42.7312024 187.659111,42.7348736 C183.454246,42.7787505 179.417936,44.3748617 176.323199,47.2160199 C173.085554,50.316067 171.229364,54.5739911 171.161811,59.0453618 C171.161754,62.6074871 171.161754,62.6074871 171.161754,66.1620606 L171.161754,66.7519898 L172.161675,66.7519898 Z" id="Shape"></path>
                <path d="M15.004047,61.9925609 L15.004047,63.7523497 C15.004047,67.0205739 14.9889352,68.519942 14.9144331,70.4320824 C14.4343527,76.5039482 10.3940038,81.7337607 4.62090435,83.7375987 C3.20218063,84.186722 1.70870755,84.4149726 0.20690952,84.4098737 L0.00522772214,84.4098708 L0.00522772214,85.4097508 L0.205211979,85.4097508 C1.80888475,85.4151985 3.40535597,85.1712065 4.93580857,84.6865014 C11.0970181,82.5481489 15.3998979,76.9785175 15.9124226,70.4909171 C15.9887653,68.5417525 16.0039683,67.0333396 16.0039683,63.7523497 L16.0039683,61.9925609 L15.004047,61.9925609 Z" id="Shape"></path>
                <path d="M25.4038981,57.8571851 C25.3179715,59.5155003 25.312241,61.0187295 25.3532863,63.809695 C25.3532323,64.1653069 25.3540549,64.4531396 25.3565689,65.116119 C25.367582,68.0203761 25.3487476,69.3336026 25.2377611,70.9602502 C25.2193265,71.2304314 25.1985302,71.4957494 25.1752245,71.756956 C24.9462937,74.5341243 24.2437212,77.2481958 23.0977557,79.7845636 L24.0089923,80.1962387 C25.2020201,77.555708 25.9334457,74.7301757 26.171478,71.8424524 C26.1951234,71.5775654 26.2164626,71.3053224 26.2353631,71.0283112 C26.3485202,69.3698517 26.3675866,68.0404499 26.356483,65.1123276 C26.3539738,64.4506217 26.3531536,64.1636146 26.3531536,63.8023437 C26.3123652,61.0251722 26.3180317,59.5387045 26.4024799,57.908923 L25.4038981,57.8571851 Z" id="Shape"></path>
                <path d="M14.3941537,90.3318101 C11.2353043,92.5801052 7.58333852,94.0381436 3.74458803,94.5836232 C2.60531616,94.7134712 1.44583377,94.7791616 0.285436179,94.7786266 L0.00522772214,94.7786266 L0.00522772214,95.7785066 L0.285205682,95.7785066 C1.48341859,95.779059 2.6809168,95.7112149 3.87162832,95.5753051 C7.88231709,95.0055844 11.6848793,93.4874207 14.9739906,91.1464125 L14.3941537,90.3318101 Z" id="Shape"></path>
                <path d="M7.96252746,104.340202 C7.30368642,104.491729 6.64490594,104.626773 5.98618039,104.745339 C4.03587134,105.097048 2.05792968,105.271759 0.0763297255,105.267369 L0.00522772214,105.267368 L0.00522772214,106.267248 L0.075222212,106.267248 C2.11596396,106.27177 4.15404371,106.091747 6.16348259,105.729375 C6.83782228,105.607999 7.51227017,105.469743 8.18665751,105.31464 L7.96252746,104.340202 Z" id="Shape"></path>
                <path d="M0.00655969666,116.626003 C1.95357455,116.620816 3.89831318,116.492523 5.82913482,116.241891 L5.70041382,115.25033 C3.81139391,115.495536 1.9087583,115.621052 0.00389574761,115.626127 L0.00655969666,116.626003 Z" id="Shape"></path>
                <path d="M56.8386602,137.870091 C62.7260346,137.183666 68.6891482,137.572694 74.4374245,139.01822 C79.1915847,140.291862 83.7278302,142.294537 87.8785888,144.953617 C89.9221591,146.2937 91.8569965,147.801819 93.6593118,149.460016 C100.983922,156.147174 106.026079,164.961069 108.077537,174.662479 C108.571174,177.016763 108.875423,179.407672 108.987188,181.811405 C108.986649,183.537975 108.986649,183.537975 108.986649,185.287765 L108.986649,193.786746 C108.97981,197.883528 110.441419,201.847981 113.106517,204.960592 C116.177986,208.406614 120.571247,210.364522 125.17752,210.344754 C126.779047,210.350206 128.375518,210.106214 129.905971,209.621509 C136.083934,207.480598 140.394237,201.890398 140.892676,195.384748 C141.002372,193.437427 141.014353,191.909077 140.984108,188.642733 C140.98413,188.207415 140.98413,188.207415 140.98413,187.767468 L140.98413,186.887573 L139.984208,186.887573 L139.984208,188.647362 C140.014277,191.896958 140.002417,193.409927 139.895005,195.318468 C139.427649,201.41709 135.380329,206.666216 129.591289,208.672529 C128.172343,209.12173 126.67887,209.34998 125.177072,209.344881 C120.853593,209.363421 116.733715,207.527349 113.85952,204.302797 C111.356464,201.379284 109.980129,197.646129 109.986569,193.78758 C109.98657,191.300377 109.98657,191.300377 109.98657,188.787346 L109.98657,181.788185 C109.871784,179.307865 109.560779,176.863872 109.056002,174.456462 C106.961099,164.549589 101.812589,155.549787 94.3349295,148.722904 C92.4939339,147.029114 90.5160522,145.487444 88.4224542,144.11459 C84.180612,141.397126 79.5497036,139.352659 74.6887353,138.050465 C68.815537,136.573464 62.7305531,136.176485 56.7228563,136.876939 L56.8386602,137.870091 Z" id="Shape"></path>
                <path d="M54.722725,148.741677 C57.2584147,148.214362 59.8411956,147.946504 62.4311355,147.942246 C66.5525313,147.913294 70.6394098,148.665141 74.4781353,150.157981 C88.5748867,154.965286 98.10101,167.811481 98.5977522,182.495005 C98.7079752,184.204196 98.715293,185.4617 98.6723022,188.516961 C98.6698919,188.688393 98.6698919,188.688393 98.6675082,188.860457 C98.5824416,193.877508 98.6507508,196.138342 99.1292772,198.955156 C99.3968733,200.530343 99.7857387,202.017811 100.318727,203.449973 C102.625001,209.683476 107.179427,214.830165 113.08706,217.878194 C116.865127,219.833222 121.068401,220.824453 125.322531,220.763457 C126.513576,220.764061 127.711074,220.696217 128.901786,220.560307 C132.912474,219.990586 136.715037,218.472423 140.004148,216.131414 L139.424311,215.316812 C136.265462,217.565107 132.613496,219.023145 128.774745,219.568625 C127.635474,219.698473 126.475991,219.764163 125.315594,219.763628 C121.218826,219.822313 117.178344,218.869472 113.546088,216.989897 C107.859679,214.056009 103.476215,209.102513 101.256193,203.102138 C100.745559,201.730041 100.372511,200.303076 100.115076,198.787701 C99.6502834,196.05173 99.5832558,193.833316 99.66604,188.950736 C99.6697153,188.702386 99.6697153,188.702386 99.6721245,188.531028 C99.7155204,185.446978 99.7081019,184.172178 99.5961672,182.573177 C99.0863115,167.362417 89.2907842,154.152925 74.9906396,149.278824 C70.8840886,147.687461 66.6718457,146.912551 62.4268004,146.942379 C59.7716988,146.946737 57.1212527,147.221612 54.5191315,147.762742 L54.722725,148.741677 Z" id="Shape"></path>
                <path d="M150.394059,182.842187 C150.308132,184.500502 150.302402,186.003731 150.343447,188.794697 C150.343393,189.150309 150.344215,189.438141 150.346729,190.101121 C150.357743,193.005378 150.338908,194.318604 150.227922,195.945252 C150.209487,196.215433 150.188691,196.480751 150.165385,196.741958 C149.936265,199.508348 149.237083,202.212182 148.09773,204.739979 L149.009337,205.150834 C150.19548,202.519225 150.923376,199.704351 151.161623,196.827647 C151.185284,196.562567 151.206623,196.290324 151.225524,196.013313 C151.338681,194.354853 151.357747,193.025452 151.346644,190.097329 C151.344134,189.435623 151.343314,189.148616 151.343314,188.787346 C151.302526,186.010174 151.308192,184.523706 151.39264,182.893925 L150.394059,182.842187 Z" id="Shape"></path>
                <path d="M48.659467,162.494622 C51.2996048,160.821969 54.0260284,159.667765 56.8864619,158.987348 C60.9267849,158.22226 65.1035182,158.282499 69.14256,159.169267 C75.9272004,161.088103 81.6713881,165.688926 85.0386969,171.917159 C87.2214184,175.889546 88.3595845,180.347461 88.3482748,184.876566 C88.3482732,186.757589 88.3482732,186.757589 88.3482732,188.657361 L88.3482732,196.436428 C88.7866095,204.066333 91.5783862,211.343075 96.3373402,217.286436 C103.32367,226.043247 113.888292,231.181977 125.091353,231.272231 C127.136122,231.276769 129.174202,231.096746 131.183641,230.734374 C131.85798,230.612998 132.532428,230.474742 133.206816,230.319639 L132.982686,229.345201 C132.323845,229.496728 131.665064,229.631773 131.006339,229.750338 C129.05603,230.102047 127.078088,230.276758 125.096488,230.272369 C114.197748,230.184558 103.917351,225.184077 97.1184394,216.662181 C92.4886399,210.880118 89.7729542,203.801706 89.3473684,196.407701 L89.3481945,184.877815 C89.3599252,180.180772 88.1792426,175.556331 85.9166735,171.438652 C82.4225182,164.975777 76.4591704,160.199417 69.3857839,158.199872 C65.186172,157.276949 60.8731669,157.214745 56.6776704,158.009782 C53.6861086,158.720841 50.8562547,159.918832 48.2826996,161.558967 L48.659467,162.494622 Z" id="Shape"></path>
                <path d="M36.662342,195.976483 L36.662342,187.537496 C36.5442283,182.10889 37.17614,177.978982 38.6217603,174.606007 L37.7026876,174.212135 C36.1946673,177.730704 35.5416647,181.998454 35.6625392,187.548381 L35.6624207,187.66748 L35.6624207,195.976483 L36.662342,195.976483 Z" id="Shape"></path>
                <path d="M47.1715147,191.736992 L47.1715147,184.047914 C47.2349706,179.851522 48.9801445,175.848258 52.0169455,172.940376 C54.9221906,170.273333 58.7213494,168.771 62.6755133,168.729725 C63.9435785,168.726331 65.2096905,168.901632 66.4328483,169.250512 C71.7207894,170.821534 75.8268877,175.015447 77.2869392,180.340566 C77.7623133,182.367026 77.9400968,184.47071 77.8100622,186.566652 C77.8091029,187.145043 77.8091029,187.145043 77.8091029,187.692477 L77.8091029,190.597128 C77.7263431,193.869282 77.8676357,197.155881 78.2321556,200.421416 C79.6708569,211.407162 84.8920969,221.538308 92.9973351,229.078585 C99.3839963,235.058454 107.330084,239.115416 115.920878,240.781955 C118.84568,241.331262 121.812044,241.608607 124.785001,241.611007 C126.793535,241.61043 128.79934,241.478741 130.790164,241.21678 L130.65971,240.225446 C128.712043,240.481728 126.749719,240.610562 124.785261,240.611127 C121.874505,240.608777 118.969658,240.337184 116.108382,239.799816 C107.705266,238.169677 99.9300616,234.199961 93.6795995,228.347619 C85.743573,220.964756 80.6320921,211.046583 79.2247579,200.301036 C78.8664306,197.090159 78.7270936,193.849049 78.8088649,190.609744 L78.8090241,188.787346 L78.8090241,186.597608 C78.9441475,184.435137 78.758095,182.233606 78.2558355,180.094121 C76.699854,174.41783 72.3368034,169.961469 66.7123754,168.290511 C65.3938986,167.914412 64.034553,167.726203 62.6689505,167.729874 C58.4640853,167.773751 54.4277755,169.369862 51.3330382,172.211021 C48.0953937,175.311068 46.2392037,179.568992 46.1716505,184.040362 C46.1715934,187.602488 46.1715934,187.602488 46.1715934,191.157061 L46.1715934,191.736992 L47.1715147,191.736992 Z" id="Shape"></path>
                <path d="M181.828821,137.870091 C187.716195,137.183666 193.679309,137.572694 199.427585,139.01822 C204.181745,140.291862 208.717991,142.294537 212.868749,144.953617 C214.923814,146.28735 216.868594,147.78887 218.681122,149.441532 C226.00408,156.127177 231.046237,164.941072 233.097695,174.642481 C233.591332,176.996766 233.895582,179.387674 234.007346,181.791407 C234.006807,183.517978 234.006807,183.517978 234.006807,185.267768 L234.006807,193.766748 C233.999968,197.86353 235.461578,201.827983 238.126675,204.940594 C241.148291,208.32896 245.451683,210.278151 249.98151,210.314746 L249.989588,209.314899 C245.741993,209.280584 241.706725,207.452838 238.879594,204.282705 C236.376622,201.359286 235.000287,197.626132 235.006727,193.767582 C235.006728,191.28038 235.006728,191.28038 235.006728,188.767348 L235.006728,181.768188 C234.891942,179.287867 234.580937,176.843874 234.076161,174.436465 C231.981257,164.529592 226.832747,155.529789 219.355088,148.702906 C217.502001,147.013263 215.513956,145.478339 213.410633,144.113297 C209.170773,141.397126 204.539864,139.352659 199.678896,138.050465 C193.805698,136.573464 187.720714,136.176485 181.713017,136.876939 L181.828821,137.870091 Z" id="Shape"></path>
                <path d="M179.712886,148.741677 C182.248575,148.214362 184.831356,147.946504 187.421296,147.942246 C191.542692,147.913294 195.62957,148.665141 199.468296,150.157981 C213.565047,154.965286 223.091171,167.811481 223.587913,182.495005 C223.698136,184.204196 223.705454,185.4617 223.662463,188.516961 C223.660052,188.688393 223.660052,188.688393 223.657669,188.860457 C223.572602,193.877508 223.640911,196.138342 224.119438,198.955156 C224.387034,200.530343 224.775899,202.017811 225.308888,203.449973 C227.615161,209.683476 232.169588,214.830165 238.077221,217.878194 C241.756169,219.784972 245.84226,220.774969 249.986932,220.763506 L249.984166,219.76363 C246.000578,219.774647 242.073293,218.823127 238.536538,216.990047 C232.84984,214.056009 228.466375,209.102513 226.246354,203.102138 C225.73572,201.730041 225.362672,200.303076 225.105236,198.787701 C224.640444,196.05173 224.573416,193.833316 224.656201,188.950736 C224.659876,188.702386 224.659876,188.702386 224.662285,188.531028 C224.705681,185.446978 224.698262,184.172178 224.586328,182.573177 C224.076472,167.362417 214.280945,154.152925 199.9808,149.278824 C195.874249,147.687461 191.662006,146.912551 187.416961,146.942379 C184.761859,146.946737 182.111413,147.221612 179.509292,147.762742 L179.712886,148.741677 Z" id="Shape"></path>
                <path d="M162.75551,174.186028 C161.195825,177.695174 160.541333,181.97513 160.712814,187.532915 L160.712577,187.647482 L160.712577,195.956485 L161.712498,195.956485 L161.712498,187.517498 C161.545071,182.083416 162.177343,177.94877 163.66925,174.592118 L162.75551,174.186028 Z" id="Shape"></path>
                <path d="M173.649628,162.494622 C176.289765,160.821969 179.016189,159.667765 181.876622,158.987348 C185.916945,158.22226 190.093679,158.282499 194.132721,159.169267 C200.917361,161.088103 206.661549,165.688926 210.028857,171.917159 C212.211579,175.889546 213.349745,180.347461 213.338435,184.876566 C213.338434,186.757589 213.338434,186.757589 213.338434,188.657361 L213.338434,196.436428 C213.77677,204.066333 216.568547,211.343075 221.327501,217.286436 C228.2957,226.008515 238.816334,231.136508 249.980367,231.252223 L249.990731,230.252397 C239.127049,230.139795 228.889455,225.149763 222.108391,216.661919 C217.4788,210.880118 214.763115,203.801706 214.337529,196.407701 L214.338355,184.877815 C214.350086,180.180772 213.169403,175.556331 210.906834,171.438652 C207.412679,164.975777 201.449331,160.199417 194.375944,158.199872 C190.176333,157.276949 185.863327,157.214745 181.667831,158.009782 C178.676269,158.720841 175.846415,159.918832 173.27286,161.558967 L173.649628,162.494622 Z" id="Shape"></path>
                <path d="M172.161675,191.736992 L172.161675,184.047914 C172.225131,179.851522 173.970305,175.848258 177.007106,172.940376 C179.912351,170.273333 183.71151,168.771 187.665674,168.729725 C188.933739,168.726331 190.199851,168.901632 191.423009,169.250512 C196.71095,170.821534 200.817048,175.015447 202.2771,180.340566 C202.752474,182.367026 202.930257,184.47071 202.800223,186.566652 C202.799263,187.145043 202.799263,187.145043 202.799263,187.692477 L202.799263,190.597128 C202.716504,193.869282 202.857796,197.155881 203.222316,200.421416 C204.661017,211.407162 209.882257,221.538308 217.987496,229.078585 C224.374157,235.058454 232.320245,239.115416 240.911039,240.781955 C243.83584,241.331262 246.802205,241.608607 249.775162,241.611007 L249.985549,240.611127 C246.864666,240.608777 243.959819,240.337184 241.098542,239.799816 C232.695426,238.169677 224.920222,234.199961 218.66976,228.347619 C210.733734,220.964756 205.622253,211.046583 204.214918,200.301036 C203.856591,197.090159 203.717254,193.849049 203.799025,190.609744 L203.799185,188.787346 L203.799185,186.597608 C203.934308,184.435137 203.748256,182.233606 203.245996,180.094121 C201.690015,174.41783 197.326964,169.961469 191.702536,168.290511 C190.384059,167.914412 189.024714,167.726203 187.659111,167.729874 C183.454246,167.773751 179.417936,169.369862 176.323199,172.211021 C173.085554,175.311068 171.229364,179.568992 171.161811,184.040362 C171.161754,187.602488 171.161754,187.602488 171.161754,191.157061 L171.161754,191.736992 L172.161675,191.736992 Z" id="Shape"></path>
                <path d="M15.004047,186.977563 L15.004047,188.737352 C15.004047,192.005576 14.9889352,193.504944 14.9144331,195.417084 C14.4474874,201.507079 10.4001681,206.756205 4.61112786,208.762518 C3.19218142,209.211719 1.69870834,209.43997 0.196910307,209.434871 L0.00522772214,209.434868 L0.00522772214,210.434748 L0.195212766,210.434748 C1.79888554,210.440196 3.39535676,210.196203 4.92580936,209.711498 C11.1037729,207.570587 15.4140758,201.980387 15.9125145,195.474738 C15.9887653,193.526754 16.0039683,192.018341 16.0039683,188.737352 L16.0039683,186.977563 L15.004047,186.977563 Z" id="Shape"></path>
                <path d="M24.0091775,205.18083 C25.1953206,202.549222 25.9232165,199.734348 26.1614628,196.857644 C26.3628724,194.591982 26.3886247,192.755059 26.3431211,188.811574 C26.3431544,185.82211 26.3514695,184.505041 26.392981,182.911067 L25.3933986,182.885037 C25.3515832,184.49068 25.3432331,185.813294 25.3432331,188.817342 C25.3883885,192.733534 25.3629571,194.547563 25.1652108,196.772117 C24.9361049,199.538345 24.2369229,202.242179 23.0975704,204.769976 L24.0091775,205.18083 Z" id="Shape"></path>
                <path d="M14.3941537,215.316812 C11.2353043,217.565107 7.58333852,219.023145 3.74458803,219.568625 C2.60531616,219.698473 1.44583377,219.764163 0.285436179,219.763628 L0.00522772214,219.763628 L0.00522772214,220.763508 L0.285205682,220.763508 C1.48341859,220.764061 2.6809168,220.696217 3.87162832,220.560307 C7.88231709,219.990586 11.6848793,218.472423 14.9739906,216.131414 L14.3941537,215.316812 Z" id="Shape"></path>
                <path d="M7.96252746,229.325203 C7.30368642,229.476731 6.64490594,229.611775 5.98618039,229.730341 C4.03587134,230.082049 2.05792968,230.25676 0.0763297255,230.252371 L0.00522772214,230.25237 L0.00522772214,231.25225 L0.075222212,231.25225 C2.11596396,231.256771 4.15404371,231.076748 6.16348259,230.714377 C6.83782228,230.593 7.51227017,230.454744 8.18665751,230.299642 L7.96252746,229.325203 Z" id="Shape"></path>
                <path d="M0.00655969666,241.611005 C1.95357455,241.605818 3.89831318,241.477525 5.82913482,241.226893 L5.70041382,240.235332 C3.81139391,240.480538 1.9087583,240.606054 0.00389574761,240.611128 L0.00655969666,241.611005 Z" id="Shape"></path>
                <path d="M68.2699035,74.4046905 C57.2455217,73.0710698 46.0998735,75.6029309 36.7337214,81.5684939 C34.4718223,83.0341153 32.3419191,84.6872577 30.3637997,86.5121228 C21.3688072,94.8549454 15.8704495,106.295245 14.975382,118.529294 C14.9740493,121.325441 14.9740493,121.325441 14.9740493,124.08511 C14.9740493,127.213394 14.9705086,128.628695 14.952982,130.39063 C14.9456852,131.124166 14.9361796,131.825773 14.9241319,132.505236 C14.5581724,138.810963 10.492609,144.186914 4.6205368,146.230227 C3.21145452,146.676261 1.72799249,146.904477 0.235914767,146.902372 L0.00522772214,146.902372 L0.00522772214,147.902252 L0.235209618,147.902252 C1.82948411,147.904501 3.41525386,147.660546 4.93580104,147.179005 C11.2027895,144.998482 15.532522,139.273216 15.923104,132.663574 C15.9359915,131.840802 15.9455322,131.136616 15.9528538,130.400575 C15.9704243,128.634228 15.9739706,127.216699 15.9739706,124.08511 L15.9739706,118.565772 C16.8492505,106.620449 22.2342401,95.4160316 31.0428058,87.2461166 C32.9782271,85.4606441 35.0632146,83.8423634 37.2741964,82.4097166 C46.4418517,76.5705999 57.3552021,74.0915079 68.1498135,75.3973333 L68.2699035,74.4046905 Z" id="Shape"></path>
                <path d="M25.3732449,126.708568 C25.3732307,129.810534 25.364821,131.226666 25.3233723,132.992307 C25.0612941,138.299249 23.1596838,143.407688 19.8797041,147.604398 C15.2676518,153.638306 8.13887276,157.209778 0.549823515,157.291154 L0.00522772214,157.291125 L0.00522772214,158.291005 L0.555184429,158.291005 C8.45734193,158.2063 15.8752036,154.49 20.6708541,148.215842 C24.0745725,143.860857 26.0498315,138.554569 26.3225482,133.028682 C26.3647108,131.23974 26.373152,129.81831 26.373152,126.704795 C26.3146001,118.945098 26.5366095,115.729311 27.7694651,111.858304 C31.2468541,99.8086717 40.4752604,90.4927541 52.3152497,86.9283417 C55.5693874,85.883663 58.7989258,85.4151999 62.0388637,85.4896094 C63.3582609,85.4897412 64.8202486,85.5518493 66.6249816,85.678492 L67.8907414,85.8833908 C69.0090081,86.0544258 69.6368099,86.1655538 70.2630104,86.3158358 L70.496365,85.3435651 C69.8351915,85.18489 69.1864872,85.070062 68.0454631,84.8955597 L66.7391165,84.6861409 C64.8687561,84.5529142 63.3845256,84.4898612 62.0503434,84.4898612 C58.7103171,84.4130212 55.3695687,84.8976159 52.1780785,85.9236869 C39.8394862,89.6399423 30.3453282,99.2405516 26.8127612,111.467851 C25.5378433,115.602366 25.3142683,118.894485 25.3732449,126.708568 Z" id="Shape"></path>
                <path d="M78.8390218,129.314482 L78.8390218,124.115106 C78.977006,121.956104 78.7908623,119.756942 78.2856426,117.620809 C76.4956972,111.106527 71.0130368,106.296735 64.3387805,105.372086 C63.75877,105.307896 63.1895102,105.276846 62.6198416,105.277367 C53.7217021,105.272297 46.422218,112.325133 46.1218822,121.218579 C46.1215974,123.350198 46.1215974,123.350198 46.1215974,125.454945 C46.1215974,128.015444 46.1191092,129.175358 46.1068019,130.618952 C46.0989836,131.536 46.0875438,132.393402 46.0716944,133.214364 C45.7225913,146.364579 39.7992638,158.750188 29.7787962,167.279181 C21.3940317,174.203086 10.8810765,178.044871 0,178.158648 L0.0104554443,179.158474 C11.1203183,179.042304 21.8543196,175.119742 30.4212117,168.045367 C40.6635328,159.327614 46.7146284,146.674844 47.0713465,133.237279 C47.0873522,132.4089 47.0988393,131.547948 47.1066868,130.627476 C47.1190264,129.180101 47.1215186,128.018276 47.1215186,125.454945 L47.1215186,121.235452 C47.4033675,112.897875 54.2604586,106.272485 62.6200137,106.277247 C63.1534806,106.27676 63.6858234,106.305795 64.2153351,106.36422 C70.4799498,107.232312 75.6374228,111.756826 77.3170158,117.86835 C77.7950677,119.891018 77.9728416,121.991297 77.8401036,124.083452 C77.8391005,125.219974 77.8391005,125.219974 77.8391005,126.314842 L77.8391005,129.314482 L78.8390218,129.314482 Z" id="Shape"></path>
                <path d="M76.7079913,98.9765239 C70.2098907,94.8336555 62.2215295,93.749459 54.8542078,96.0104845 C51.77392,96.9593438 48.8912587,98.4575754 46.3450881,100.4329 C41.0428792,104.4774 37.4158942,110.338366 36.1612983,116.891966 C35.6677239,120.525777 35.4990481,124.169023 35.6528681,127.805791 C35.6524215,128.166912 35.6532408,128.469103 35.6557578,129.169583 C35.6683092,132.662568 35.6389536,134.263509 35.4740932,136.282965 C33.8732544,150.833639 22.3714241,163.408377 7.85975282,166.833351 C5.31550174,167.432188 2.70991779,167.733074 0.0958329861,167.729873 L0.00522772214,168.729752 C2.78623936,168.733049 5.46911741,168.423237 8.08914995,167.806563 C23.0067059,164.285794 34.8201656,151.370357 36.4693594,136.378305 C36.6386079,134.307523 36.6683244,132.6869 36.6556726,129.165991 C36.6531599,128.466718 36.6523428,128.165307 36.6523428,127.784666 C36.5005718,124.185772 36.666511,120.601631 37.1477682,117.053147 C38.3517222,110.768009 41.8449689,105.123156 46.9547862,101.225391 C49.4088674,99.3215309 52.1836042,97.8793919 55.1480881,96.9662048 C62.2347843,94.7913033 69.9194056,95.8342756 76.1704301,99.8196205 L76.7079913,98.9765239 Z" id="Shape"></path>
                <path d="M89.3581937,133.483982 L89.3581937,126.524817 C89.3581937,120.052775 89.1629863,117.353069 88.1548857,114.17512 C87.8268698,113.209257 87.4372588,112.27628 86.98559,111.37302 L86.0912413,111.820196 C86.5226013,112.682842 86.8946937,113.573869 87.2049347,114.487089 C88.1676689,117.522365 88.3582724,120.1584 88.3582724,126.524817 L88.3582724,133.483982 L89.3581937,133.483982 Z" id="Shape"></path>
                <path d="M109.006647,124.385074 L109.006647,131.384234 C108.999828,135.5744 110.558102,139.616925 113.376206,142.71907 C116.42754,146.030561 120.72828,147.903628 125.227746,147.882248 C126.819645,147.884503 128.405414,147.640549 129.925962,147.159007 C136.210809,144.986041 140.555882,139.248502 140.94328,132.623271 C140.964482,131.763898 140.979174,131.012452 140.988845,130.218776 C141.007349,128.700072 141.007542,127.466852 140.997017,124.795669 C140.99553,124.418575 140.99553,124.418575 140.994126,124.043297 C140.994129,121.285446 140.994129,121.285446 140.994129,118.525777 C141.869409,106.580454 147.254398,95.3760364 156.062964,87.2061214 C157.989703,85.4364284 160.064671,83.8314553 162.263874,82.410029 C171.422113,76.5831989 182.319782,74.1079883 193.100192,75.407358 L193.219852,74.4146633 C182.209974,73.0876357 171.08034,75.6155328 161.724088,81.5683626 C159.474498,83.0223407 157.35483,84.6618888 155.38476,86.471389 C146.388965,94.8149502 140.890608,106.25525 139.99554,118.489299 C139.994208,121.285446 139.994208,121.285446 139.994208,124.045115 C139.995616,124.422473 139.995616,124.422473 139.997104,124.799609 C140.007608,127.46546 140.007415,128.695021 139.988998,130.206595 C139.97939,130.995096 139.964803,131.741195 139.944413,132.459926 C139.581302,138.785914 135.501334,144.17339 129.611623,146.209909 C128.201615,146.656263 126.718153,146.884479 125.226075,146.882375 C121.004569,146.902424 116.972458,145.14635 114.113953,142.044147 C111.465783,139.129045 110.000154,135.326861 110.006568,131.385047 C110.006568,130.477234 110.006568,130.477234 110.006568,127.756234 L110.006568,124.385074 L109.006647,124.385074 Z" id="Shape"></path>
                <path d="M101.22928,141.539294 C99.5473507,137.98216 99.0608613,133.982064 99.1773298,127.874187 L99.1774207,127.744671 L99.1774207,120.135584 L98.1774994,120.135584 L98.1774994,127.864656 C98.0584017,134.105646 98.5605303,138.234332 100.325309,141.966686 L101.22928,141.539294 Z" id="Shape"></path>
                <path d="M150.363405,126.718567 C150.363391,129.820533 150.354982,131.236664 150.313533,133.002306 C150.051455,138.309248 148.149844,143.417687 144.869865,147.614396 C140.2681,153.641437 133.15594,157.215439 125.579026,157.311163 L124.825402,157.311123 C119.805045,157.276482 114.908839,155.725341 110.781599,152.860898 L110.21146,153.682317 C114.504187,156.661613 119.596712,158.274949 124.821953,158.310991 L125.585342,158.311003 C133.475827,158.211357 140.876396,154.492424 145.661175,148.225631 C149.064733,143.870856 151.039992,138.564568 151.312709,133.038681 C151.354871,131.249739 151.363313,129.828309 151.363313,126.714794 C151.304761,118.955097 151.52677,115.73931 152.759626,111.868303 C156.237015,99.8186705 165.465421,90.5027529 177.30541,86.9383405 C180.559548,85.8936618 183.789086,85.4251987 187.029024,85.4996082 C188.40795,85.49974 189.90366,85.5583929 191.615142,85.678492 L192.880902,85.8833908 C193.999169,86.0544258 194.62697,86.1655538 195.253171,86.3158358 L195.486526,85.3435651 C194.825352,85.18489 194.176648,85.070062 193.035624,84.8955597 L191.729277,84.6861409 C189.95156,84.5594152 188.432841,84.49986 187.040504,84.49986 C183.700478,84.42302 180.359729,84.9076147 177.168239,85.9336857 C164.829647,89.6499411 155.335489,99.2505504 151.802922,111.47785 C150.528004,115.612365 150.304429,118.904484 150.363405,126.718567 Z" id="Shape"></path>
                <path d="M214.348354,133.483982 L214.348354,126.524817 C214.348354,120.052775 214.153147,117.353069 213.145046,114.17512 C212.81703,113.209257 212.427419,112.27628 211.975751,111.37302 L211.081402,111.820196 C211.512762,112.682842 211.884854,113.573869 212.195095,114.487089 C213.157829,117.522365 213.348433,120.1584 213.348433,126.524817 L213.348433,133.483982 L214.348354,133.483982 Z" id="Shape"></path>
                <path d="M201.698152,98.9765239 C195.200051,94.8336555 187.21169,93.749459 179.844368,96.0104845 C176.76408,96.9593438 173.881419,98.4575754 171.335249,100.4329 C166.03304,104.4774 162.406055,110.338366 161.151459,116.891966 C160.657884,120.525777 160.489209,124.169023 160.643029,127.805791 C160.642582,128.166912 160.643401,128.469103 160.645918,129.169583 C160.65847,132.662568 160.629114,134.263509 160.464254,136.282965 C158.863415,150.833639 147.361585,163.408377 132.849913,166.833351 C130.305662,167.432188 127.700078,167.733074 125.085994,167.729873 C122.40066,167.726746 119.724566,167.415816 117.110087,166.803171 L116.881949,167.776679 C119.570829,168.406758 122.323078,168.726536 125.084799,168.729752 C127.7764,168.733049 130.459278,168.423237 133.07931,167.806563 C147.996866,164.285794 159.810326,151.370357 161.45952,136.378305 C161.628768,134.307523 161.658485,132.6869 161.645833,129.165991 C161.64332,128.466718 161.642503,128.165307 161.642503,127.784666 C161.490732,124.185772 161.656672,120.601631 162.137929,117.053147 C163.341883,110.768009 166.835129,105.123156 171.944947,101.225391 C174.399028,99.3215309 177.173765,97.8793919 180.138249,96.9662048 C187.224945,94.7913033 194.909566,95.8342756 201.160591,99.8196205 L201.698152,98.9765239 Z" id="Shape"></path>
                <path d="M203.829182,129.314482 L203.829182,124.115106 C203.967167,121.956104 203.781023,119.756942 203.275803,117.620809 C201.485858,111.106527 196.003197,106.296735 189.328941,105.372086 C188.748931,105.307896 188.179671,105.276846 187.610002,105.277367 C178.711863,105.272297 171.412379,112.325133 171.112043,121.218579 C171.111758,123.350198 171.111758,123.350198 171.111758,125.454945 C171.111758,128.015444 171.10927,129.175358 171.096962,130.618952 C171.089144,131.536 171.077704,132.393402 171.061855,133.214364 C170.711456,146.386294 164.768511,158.789701 154.719495,167.318722 C146.273737,174.29214 135.671985,178.136995 124.712599,178.198624 C122.894287,178.197862 121.074712,178.085588 119.267106,177.862424 L119.144582,178.85477 C120.992699,179.082935 122.853054,179.197725 124.715203,179.198496 C135.908041,179.135564 146.732706,175.209866 155.361353,168.085382 C165.632327,159.368035 171.703463,146.697082 172.061506,133.237307 C172.077513,132.4089 172.089,131.547948 172.096847,130.627476 C172.109187,129.180101 172.111679,128.018276 172.111679,125.454945 L172.111679,121.235452 C172.393528,112.897875 179.250619,106.272485 187.610174,106.277247 C188.143641,106.27676 188.675984,106.305795 189.205496,106.36422 C195.47011,107.232312 200.627583,111.756826 202.307176,117.86835 C202.785228,119.891018 202.963002,121.991297 202.830264,124.083452 C202.829261,125.219974 202.829261,125.219974 202.829261,126.314842 L202.829261,129.314482 L203.829182,129.314482 Z" id="Shape"></path>
                <path d="M233.996807,124.385074 L233.996807,131.384234 C233.989989,135.5744 235.548263,139.616925 238.366366,142.71907 C241.362523,145.974623 245.56998,147.842866 249.991096,147.882234 L250,146.882394 C245.855376,146.845487 241.91105,145.094083 239.104318,142.044369 C236.455944,139.129045 234.990314,135.326861 234.996728,131.385047 C234.996729,130.477234 234.996729,130.477234 234.996729,127.756234 L234.996729,124.385074 L233.996807,124.385074 Z" id="Shape"></path>
                <path d="M235.161624,153.65232 C239.454351,156.631616 244.546876,158.244953 249.772117,158.280994 L249.985549,158.281006 L249.985549,157.281126 L249.775565,157.281126 C244.755209,157.246486 239.859003,155.695345 235.731763,152.830902 L235.161624,153.65232 Z" id="Shape"></path>
                <path d="M226.219441,141.539294 C224.537511,137.98216 224.051022,133.982064 224.16749,127.874187 L224.167581,127.744671 L224.167581,120.135584 L223.16766,120.135584 L223.16766,127.864656 C223.048562,134.105646 223.550691,138.234332 225.31547,141.966686 L226.219441,141.539294 Z" id="Shape"></path>
                <path d="M241.87208,167.79667 C244.531235,168.419949 247.252496,168.739684 249.983707,168.749747 L249.987391,167.749873 C247.331774,167.74009 244.685832,167.429204 242.100277,166.823176 L241.87208,167.79667 Z" id="Shape"></path>
                <path d="M244.184739,178.784778 C246.032856,179.012943 247.893211,179.127733 249.75536,179.128505 L249.985549,179.128505 L249.985549,178.128625 L249.755567,178.128625 C247.934444,178.12787 246.114868,178.015596 244.307262,177.792433 L244.184739,178.784778 Z" id="Shape"></path>
                <path d="M68.2699035,199.389692 C57.2455217,198.056072 46.0998735,200.587933 36.7337214,206.553496 C34.4718223,208.019117 32.3419191,209.672259 30.3637997,211.497125 C21.3688072,219.839947 15.8704495,231.280247 14.975382,243.514296 C14.9740493,244.930608 14.9740493,244.930608 14.9740493,246.310443 L14.9740493,250 L15.9739706,250 L15.9739706,243.550774 C16.8492505,231.605451 22.2342401,220.401033 31.0428058,212.231118 C32.9782271,210.445646 35.0632146,208.827365 37.2741964,207.394718 C46.4418517,201.555602 57.3552021,199.07651 68.1498135,200.382335 L68.2699035,199.389692 Z" id="Shape"></path>
                <path d="M25.3632361,249.992147 L26.3631482,249.987856 C26.3368902,243.869996 26.6387022,240.397341 27.7693857,236.853554 L27.7930402,236.701596 C31.2468541,224.803672 40.4752604,215.487755 52.3152497,211.923342 L52.4802343,211.871815 C55.5693874,210.878664 58.7989258,210.410201 62.0388637,210.48461 C63.4177894,210.484742 64.9134995,210.543395 66.6249816,210.663494 L67.8907414,210.868393 C69.0090081,211.039428 69.6368099,211.150556 70.2630104,211.300838 L70.496365,210.328567 C69.8351915,210.169892 69.1864872,210.055064 68.0454631,209.880561 L66.7391165,209.671143 C64.9613994,209.544417 63.4426802,209.484862 62.0503434,209.484862 C58.7103171,209.408022 55.3695687,209.892617 52.1780785,210.918688 L52.0219954,210.967444 C39.8394862,214.634943 30.3453282,224.235552 26.8127612,236.462851 L26.7931189,236.601608 C25.6414247,240.268595 25.3367373,243.81817 25.3632361,249.992147 Z" id="Shape"></path>
                <path d="M78.849021,249.970004 L78.849021,249.050114 C78.9870052,246.891112 78.8008615,244.69195 78.2956418,242.555817 C76.5056964,236.041535 71.023036,231.231743 64.3487797,230.307094 C63.7687692,230.242903 63.1995094,230.211854 62.6298408,230.212375 C53.7317013,230.207305 46.4322172,237.260141 46.1318814,246.153587 C46.1315966,247.121595 46.1315966,247.121595 46.1315966,248.070232 L46.1315966,249.970004 L47.1315179,249.970004 L47.1315179,246.17046 C47.4133667,237.832883 54.2704578,231.207492 62.6300129,231.212254 C63.1634799,231.211767 63.6958226,231.240803 64.2253343,231.299228 C70.489949,232.16732 75.647422,236.691834 77.327015,242.803358 C77.8050669,244.826026 77.9828408,246.926305 77.8501029,249.01846 C77.8490997,249.281336 77.8490997,249.281336 77.8490997,249.510059 L77.8490997,249.970004 L78.849021,249.970004 Z" id="Shape"></path>
                <path d="M36.6522678,249.961345 C36.6063856,247.312728 36.7818111,244.664906 37.1767149,242.045489 C38.3817199,235.753011 41.8749666,230.108157 46.9847838,226.210393 C49.4303813,224.309362 52.1948932,222.867357 55.1490388,221.950913 C62.2285617,219.782456 69.9046505,220.825243 76.1505576,224.804703 L76.687867,223.961446 C70.1950861,219.824695 62.2155946,218.740691 54.8544695,220.995406 C51.7837097,221.948023 48.9116711,223.446116 46.3747073,225.418196 C41.0728769,229.462401 37.4458918,235.323367 36.1912959,241.876968 C35.7847624,244.570907 35.60565,247.274379 35.6524965,249.978662 L36.6522678,249.961345 Z" id="Shape"></path>
                <path d="M89.3481945,249.970004 C89.3481945,244.891895 89.091565,242.035006 88.143207,239.154926 C87.8168705,238.194259 87.4272596,237.261282 86.9755908,236.358022 L86.0812421,236.805198 C86.5126021,237.667844 86.8846945,238.55887 87.1949355,239.472091 C88.0990151,242.217771 88.3482732,244.9926 88.3482732,249.970004 L89.3481945,249.970004 Z" id="Shape"></path>
                <path d="M193.260064,199.389692 C182.235682,198.056072 171.090034,200.587933 161.723882,206.553496 C159.461983,208.019117 157.33208,209.672259 155.35396,211.497125 C146.358968,219.839947 140.86061,231.280247 139.965542,243.514296 C139.96421,244.930608 139.96421,244.930608 139.96421,246.310443 L139.96421,250 L140.964131,250 L140.964131,243.550774 C141.839411,231.605451 147.224401,220.401033 156.032966,212.231118 C157.968388,210.445646 160.053375,208.827365 162.264357,207.394718 C171.432012,201.555602 182.345363,199.07651 193.139974,200.382335 L193.260064,199.389692 Z" id="Shape"></path>
                <polygon id="Shape" points="110.006568 249.970004 110.006568 249.360077 109.006647 249.360077 109.006647 249.970004"></polygon>
                <polygon id="Shape" points="99.1774207 249.970004 99.1774207 245.110587 98.1774994 245.110587 98.1774994 249.970004"></polygon>
                <path d="M150.353397,249.992147 L151.353309,249.987856 C151.327051,243.869996 151.628863,240.397341 152.759546,236.853554 L152.783201,236.701596 C156.237015,224.803672 165.465421,215.487755 177.30541,211.923342 L177.470395,211.871815 C180.559548,210.878664 183.789086,210.410201 187.029024,210.48461 C188.40795,210.484742 189.90366,210.543395 191.615142,210.663494 L192.880902,210.868393 C193.999169,211.039428 194.62697,211.150556 195.253171,211.300838 L195.486526,210.328567 C194.825352,210.169892 194.176648,210.055064 193.035624,209.880561 L191.729277,209.671143 C189.95156,209.544417 188.432841,209.484862 187.040504,209.484862 C183.700478,209.408022 180.359729,209.892617 177.168239,210.918688 L177.012156,210.967444 C164.829647,214.634943 155.335489,224.235552 151.802922,236.462851 L151.783279,236.601608 C150.631585,240.268595 150.326898,243.81817 150.353397,249.992147 Z" id="Shape"></path>
                <path d="M214.338355,249.970004 C214.338355,244.891895 214.081726,242.035006 213.133368,239.154926 C212.807031,238.194259 212.41742,237.261282 211.965751,236.358022 L211.071403,236.805198 C211.502763,237.667844 211.874855,238.55887 212.185096,239.472091 C213.089176,242.217771 213.338434,244.9926 213.338434,249.970004 L214.338355,249.970004 Z" id="Shape"></path>
                <path d="M161.642428,249.961345 C161.596546,247.312728 161.771972,244.664906 162.166875,242.045489 C163.37188,235.753011 166.865127,230.108157 171.974944,226.210393 C174.420542,224.309362 177.185054,222.867357 180.139199,221.950913 C187.218722,219.782456 194.894811,220.825243 201.140718,224.804703 L201.678028,223.961446 C195.185247,219.824695 187.205755,218.740691 179.84463,220.995406 C176.77387,221.948023 173.901832,223.446116 171.364868,225.418196 C166.063037,229.462401 162.436052,235.323367 161.181456,241.876968 C160.774923,244.570907 160.595811,247.274379 160.642657,249.978662 L161.642428,249.961345 Z" id="Shape"></path>
                <path d="M203.839182,249.970004 L203.839182,249.050114 C203.977166,246.891112 203.791022,244.69195 203.285802,242.555817 C201.495857,236.041535 196.013197,231.231743 189.33894,230.307094 C188.75893,230.242903 188.18967,230.211854 187.620001,230.212375 C178.721862,230.207305 171.422378,237.260141 171.122042,246.153587 C171.121757,247.121595 171.121757,247.121595 171.121757,248.070232 L171.121757,249.970004 L172.121678,249.970004 L172.121678,246.17046 C172.403527,237.832883 179.260618,231.207492 187.620173,231.212254 C188.15364,231.211767 188.685983,231.240803 189.215495,231.299228 C195.48011,232.16732 200.637583,236.691834 202.317176,242.803358 C202.795227,244.826026 202.973001,246.926305 202.840263,249.01846 C202.83926,249.281336 202.83926,249.281336 202.83926,249.510059 L202.83926,249.970004 L203.839182,249.970004 Z" id="Shape"></path>
                <polygon id="Shape" points="234.996729 249.970004 234.996729 249.360077 233.996807 249.360077 233.996807 249.970004"></polygon>
                <polygon id="Shape" points="224.167581 249.970004 224.167581 245.110587 223.16766 245.110587 223.16766 249.970004"></polygon>
                <path d="M109.006647,0 L109.006647,6.33923929 C108.999828,10.5294056 110.558102,14.5719301 113.376206,17.6740754 C116.42754,20.9855662 120.72828,22.8586337 125.227746,22.8372539 C126.819645,22.8395085 128.405414,22.595554 129.925962,22.1140125 C136.184195,19.9525719 140.523417,14.2552915 140.943123,7.66083783 L140.944133,7.50909891 C140.986093,6.0115431 141.002031,4.45249232 141.001165,2.50725439 C141.000856,1.81324445 140.999135,1.26039549 140.994125,0.00799905611 L139.994212,0.0119985442 C139.999217,1.26320815 140.000936,1.81527077 140.001244,2.50769937 C140.002106,4.44427965 139.986259,5.99450184 139.944406,7.49516178 L139.944211,7.62908451 C139.551122,13.7894387 135.476649,19.139112 129.61178,21.1648598 C128.201615,21.6112689 126.718153,21.8394844 125.226075,21.83738 C121.004569,21.8574295 116.972458,20.1013557 114.113953,16.9991521 C111.465783,14.0840501 110.000154,10.281866 110.006568,6.34005273 C110.006568,5.43772522 110.006568,5.43772522 110.006568,2.73318299 L110.006568,0 L109.006647,0 Z" id="Shape"></path>
                <path d="M98.1774994,0 L98.1774994,2.87965444 C98.0596183,9.05684244 98.5724628,13.2371299 100.324485,16.9799325 L101.230104,16.5560432 C99.5590712,12.9862564 99.0620463,8.93491753 99.1773298,2.88918546 L99.1774207,2.74967004 L99.1774207,0 L98.1774994,0 Z" id="Shape"></path>
                <path d="M150.323394,0 L150.323394,1.68979722 C150.323394,4.79553594 150.314985,6.21166738 150.273536,7.97730887 C150.011458,13.2842506 148.109847,18.3926902 144.829868,22.5893993 C140.228103,28.6164396 133.115943,32.1904415 125.539029,32.2861656 L124.785405,32.2861257 C119.765048,32.2514853 114.868842,30.700344 110.741602,27.8359011 L110.171463,28.6573197 C114.46419,31.6366158 119.556715,33.2499521 124.781956,33.2859938 L125.545345,33.2860057 C133.43583,33.18636 140.836399,29.4674269 145.621178,23.2006339 C149.024736,18.845859 150.999995,13.5395713 151.272712,8.01368362 C151.314875,6.22474168 151.323316,4.8033122 151.323316,1.68979722 L151.323316,0 L150.323394,0 Z" id="Shape"></path>
                <path d="M116.881949,42.8116748 C119.570829,43.4417538 122.323078,43.7615323 125.084799,43.7647479 C127.7764,43.7680444 130.459278,43.4582325 133.07931,42.8415584 C148.025721,39.2982421 159.831172,26.3974841 161.459592,11.4126458 C161.662232,8.93260456 161.687933,6.98114336 161.642474,2.81420807 C161.642503,1.41483022 161.642503,1.41483022 161.642503,0.0299964004 L160.642582,0.0299964004 L160.642582,2.81966164 C160.687742,6.96187719 160.662327,8.89166846 160.464254,11.3179608 C158.88363,25.8613174 147.389963,38.4213646 132.849428,41.8684614 C130.305662,42.4671839 127.700078,42.7680702 125.085994,42.7648686 C122.40066,42.7617419 119.724566,42.4508118 117.110087,41.8381672 L116.881949,42.8116748 Z" id="Shape"></path>
                <polygon id="Shape" points="213.338434 0 213.338434 8.49898012 214.338355 8.49898012 214.338355 0"></polygon>
                <path d="M119.194578,53.7997763 C121.042695,54.0279414 122.90305,54.1427317 124.765199,54.1435027 C135.958037,54.0805702 146.782702,50.1548727 155.411349,43.0303882 C165.671975,34.3223712 171.742066,21.6682972 172.111491,8.22274533 C172.180191,5.99017087 172.188462,3.83974801 172.16166,0.436010793 C172.161675,0.334959805 172.161675,0.334959805 172.161675,0.229972403 L172.161675,0.0199976003 L171.161754,0.0199976003 L171.161754,0.439947206 C171.188477,3.83563585 171.180247,5.9755361 171.111994,8.19363943 C170.750322,21.3569353 164.8084,33.7438203 154.769503,42.2637187 C146.323733,49.2371465 135.721981,53.0820018 124.762595,53.1436307 C122.944283,53.1428686 121.124708,53.0305946 119.317102,52.8074309 L119.194578,53.7997763 Z" id="Shape"></path>
                <polygon id="Shape" points="202.83926 0 202.83926 4.27948646 203.839182 4.27948646 203.839182 0"></polygon>
                <path d="M249.990001,21.9073909 C245.845377,21.8704845 241.901051,20.1190799 239.094319,17.0693659 C236.445945,14.1540417 234.980315,10.3518576 234.986729,6.41004433 C234.98673,5.50940298 234.98673,5.50940298 234.98673,2.80991924 L234.98673,0.069991601 L233.986808,0.069991601 L233.986808,6.40923089 C233.97999,10.5993972 235.538263,14.6419217 238.356367,17.744067 C241.352524,20.99962 245.55998,22.8678628 249.981097,22.9072313 L249.990001,21.9073909 Z" id="Shape"></path>
                <path d="M235.161624,28.6673185 C239.454351,31.6466146 244.546876,33.2599509 249.772117,33.2959926 L249.985549,33.2960045 L249.985549,32.2961245 L249.775565,32.2961245 C244.755209,32.2614841 239.859003,30.7103428 235.731763,27.8458999 L235.161624,28.6673185 Z" id="Shape"></path>
                <path d="M223.16766,0 L223.16766,2.87965444 C223.049779,9.05684244 223.562623,13.2371299 225.314646,16.9799325 L226.220265,16.5560432 C224.549232,12.9862564 224.052207,8.93491753 224.16749,2.88918546 L224.167581,2.74967004 L224.167581,0 L223.16766,0 Z" id="Shape"></path>
                <path d="M241.87208,42.8116681 C244.531235,43.4349476 247.252496,43.7546826 249.983707,43.7647448 L249.987391,42.7648716 C247.331774,42.7550879 244.685832,42.4442025 242.100277,41.8381739 L241.87208,42.8116681 Z" id="Shape"></path>
                <path d="M244.184739,53.7997763 C246.032856,54.0279414 247.893211,54.1427317 249.75536,54.1435027 L249.985549,54.1435028 L249.985549,53.1436228 L249.755567,53.1436228 C247.934444,53.1428686 246.114868,53.0305946 244.307262,52.8074309 L244.184739,53.7997763 Z" id="Shape"></path>
                <path d="M0.00522772214,22.9072511 L0.235209618,22.9072511 C1.82948411,22.9095001 3.41525386,22.6655456 4.93580104,22.1840041 C11.2173129,20.0124721 15.5616513,14.2799735 15.9531009,7.65858772 L15.9539722,7.50909891 C15.9959328,6.0115431 16.0118704,4.45249232 16.0110047,2.50725439 C16.0106958,1.81324445 16.0089741,1.26039549 16.0039643,0.00799905611 L15.004051,0.0119985442 C15.009056,1.26320815 15.0107753,1.81527077 15.0110835,2.50769937 C15.0119454,4.44427965 14.996098,5.99450184 14.9542452,7.49516178 L14.9540509,7.62908451 C14.5873562,13.8169777 10.5080781,19.1997204 4.62148148,21.2348991 C3.21145452,21.6812605 1.72799249,21.909476 0.235914767,21.9073716 L0.00522772214,21.9073711 L0.00522772214,22.9072511 Z" id="Shape"></path>
                <path d="M25.3332339,0 L25.3332339,1.68979722 C25.3332339,4.79553594 25.3248242,6.21166738 25.2833755,7.97730887 C25.0212972,13.2842506 23.1196869,18.3926902 19.8397072,22.5893993 C15.2416354,28.6242162 8.12885524,32.2057579 0.548562216,32.3061671 L0.00522772214,32.3061233 L0.00522772214,33.3060033 L0.555184429,33.3060033 C8.44949192,33.2014785 15.850706,29.4746998 20.6313237,23.2002325 C24.0345756,18.845859 26.0098347,13.5395713 26.2825514,8.01368362 C26.324714,6.22474168 26.3331551,4.8033122 26.3331551,1.68979722 L26.3331551,0 L25.3332339,0 Z" id="Shape"></path>
                <polygon id="Shape" points="78.8390218 4.32948046 78.8390218 0.0499940007 77.8391005 0.0499940007 77.8391005 4.32948046"></polygon>
                <path d="M0.0104554443,54.1334766 C11.1203183,54.0173074 21.8543196,50.0947446 30.4212117,43.0203699 C40.6792293,34.3147057 46.7490592,21.66485 47.121327,8.22285457 C47.1900669,5.98897731 47.1982504,3.86340092 47.1714996,0.42605794 C47.1715147,0.324961005 47.1715147,0.324961005 47.1715147,0.219973603 L47.1715147,0.00999880014 L46.1715934,0.00999880014 L46.1715934,0.429948406 C46.1982662,3.85921068 46.190123,5.97433407 46.1218339,8.19363943 C45.7573815,21.3533448 39.8157153,33.7361005 29.7793452,42.2537173 C21.3940317,49.1780892 10.8810765,53.0198743 0,53.1336513 L0.0104554443,54.1334766 Z" id="Shape"></path>
                <path d="M0.00522772214,43.7647482 C2.79598186,43.7704088 5.4892111,43.460581 8.11915066,42.8415577 C23.0655582,39.2982421 34.871009,26.3974841 36.4994286,11.4126458 C36.7020693,8.93260456 36.72777,6.98114336 36.6823107,2.81420807 C36.6823404,1.41483022 36.6823404,1.41483022 36.6823404,0.0299964004 L35.6824191,0.0299964004 L35.6824191,2.81966164 C35.7275791,6.96187719 35.7021637,8.89166846 35.5040909,11.3179608 C33.9234671,25.8613174 22.4297999,38.4213646 7.88926527,41.8684614 C5.33587471,42.4694663 2.72023779,42.7703679 0.0962683491,42.7648693 L0.00522772214,43.7647482 Z" id="Shape"></path>
                <polygon id="Shape" points="88.3482732 0 88.3482732 8.49898012 89.3481945 8.49898012 89.3481945 0"></polygon>
            </g>
        </g>
    </g>
</svg>