<svg xmlns="http://www.w3.org/2000/svg" xmlns:xlink="http://www.w3.org/1999/xlink" width="16" height="12" viewBox="0 0 16 12"><defs><path id="a" d="M1536 2329.66c0-.36.3-.66.67-.66.36 0 .66.3.66.67v14.02c0 .37-.3.67-.67.67a.66.66 0 0 1-.66-.67z"/><path id="b" d="M1541.44 2339.12a.66.66 0 1 1 .94.94l-4.49 4.5a.66.66 0 1 1-.94-.94z"/><path id="c" d="M1532.89 2339.12a.66.66 0 1 0-.94.94l4.49 4.5c.26.25.68.25.94 0a.66.66 0 0 0 0-.95z"/></defs><g opacity=".6" transform="rotate(-90 -393 1936.5)"><g opacity=".6"><use fill="#212121" xlink:href="#a"/></g><g opacity=".6"><use fill="#212121" xlink:href="#b"/></g><g opacity=".6"><use fill="#212121" xlink:href="#c"/></g></g></svg>