<svg xmlns="http://www.w3.org/2000/svg" xmlns:xlink="http://www.w3.org/1999/xlink" width="18" height="27" viewBox="0 0 18 24"><defs><path id="a" d="M383 771a1 1 0 0 1 2 0v22a1 1 0 0 1-2 0z"/><path id="b" d="M390.83 784.76a1 1 0 0 1 1.41 1.41l-7.07 7.07a1 1 0 0 1-1.41-1.41z"/><path id="c" d="M377.17 784.76a1 1 0 0 0-1.41 1.41l7.07 7.07a1 1 0 0 0 1.41-1.41z"/></defs><g transform="translate(-375 -770)"><use fill="#fff" xlink:href="#a"/></g><g transform="translate(-375 -770)"><use fill="#fff" xlink:href="#b"/></g><g transform="translate(-375 -770)"><use fill="#fff" xlink:href="#c"/></g></svg>