<svg xmlns="http://www.w3.org/2000/svg" xmlns:xlink="http://www.w3.org/1999/xlink" width="88" height="88" viewBox="0 0 88 88"><defs><path id="a" d="M466 2002a44 44 0 1 1 88 0 44 44 0 0 1-88 0z"/><path id="b" d="M526.53 2015.42c-.52-1.18-2.06-2.3-3.86-3.28-3.23-1.74-7.3-2.98-7.74-3.12h-.01c-.84.46-1.74.74-2.63.9a13.7 13.7 0 0 1-4.68-.09c-1.75-.33-2.96-.83-2.96-.83s-4.15 1.25-7.47 3.05c-1.8.99-3.37 2.14-3.9 3.34a3.36 3.36 0 0 0 .71 3.7c.88.97 2.3 1.63 4.04 1.63v-.01c3.33-.16 7.23-2.18 10.97-4.12 0 0 .29-.19.77-.44-1.03-.6-3.06-1.61-4.91-1.61a12.2 12.2 0 0 0-3.89.27l-.03-.1c0-2.13 2.8-2.31 4.31-2.48.25-.03.62-.26.97-.53a1.3 1.3 0 0 1 1.08-.25c.28.07.55.22.73.47l.97 1.28s.16.21.57.48l.03-.04c.7-.26 1.95-1.72 1.95-1.72a1.28 1.28 0 0 1 1.81-.21c.35.26.62.9.89.93 1.46.16 3.91.44 4.01 2.45v.03c-1.07-.14-2.37-.18-3.97-.25a13.55 13.55 0 0 1-2.55-.32c-1.12.45-1.3 1.69-1.33 2l.07.04c1.64.86 3.33 1.73 4.98 2.46 2.08.91 4.12 1.58 5.98 1.68 1.9.09 3.44-.59 4.37-1.62a3.37 3.37 0 0 0 .72-3.69"/><path id="c" d="M503.89 1999.97v.01a8.03 8.03 0 0 1 1.61 3.74s3.72 1.99 8.83.08a7.85 7.85 0 0 1 1.88-4.13v-.01a6.3 6.3 0 0 1 2.63-1.69l.36-.06a9.84 9.84 0 0 0-.35-1.54c-.21-.74-.89-1.7-2.86-2.37-.27 1.29-1.56 3.26-5.92 3.26-3.83 0-5.38-2.2-5.9-3.25-1.93.67-2.6 1.61-2.81 2.35-.15.44-.26.99-.36 1.6a6.13 6.13 0 0 1 2.89 2.01"/><path id="d" d="M510.16 1979c1.19.01 2.16.62 2.16 1.56 0 .35-.14.68-.36.94l-.01.02a4.36 4.36 0 0 0-1.76-.32c-.68 0-1.29.11-1.81.34l-.01-.02a1.52 1.52 0 0 1-.37-.96c.01-.95.97-1.56 2.16-1.56"/><path id="e" d="M507.06 1984.61c-.4.68-.71 1.02-1.04 1.2a8.7 8.7 0 0 1-.02-.51l.02-.6c.15-1.67.89-2.83 2.14-3.36a4.46 4.46 0 0 1 1.81-.34c.67 0 1.26.11 1.77.32 1.28.53 2.04 1.7 2.18 3.39a5.74 5.74 0 0 1 .01 1.13 2 2 0 0 1-1.07-.98 2.26 2.26 0 0 0-1.93-1.16h-2.09c-.7 0-1.41.31-1.78.91"/><path id="f" d="M526 2020h8.17"/><path id="g" d="M504 2020l11.2.01"/><path id="h" d="M486 2020l8.21.01"/><path id="i" d="M501 1995.82c.2-.73.87-1.67 2.8-2.34.61-.22 1.35-.41 2.23-.56 2.03-.33 1.9-2.92 1.9-2.92"/><path id="j" d="M503.9 2000.01a6.18 6.18 0 0 0-2.89-2.01H501"/><path id="k" d="M504.88 2009.5c.78-1.67 1.05-3.79.72-5.76a7.95 7.95 0 0 0-1.6-3.74"/><path id="l" d="M516 1999.69a6.33 6.33 0 0 1 2.62-1.69"/><path id="m" d="M514.85 2009.82a10.09 10.09 0 0 1-.72-5.69 7.76 7.76 0 0 1 1.89-4.13"/><path id="n" d="M514.22 1984l.02.6-.01.53c-.04.49-.12.98-.23 1.46"/><path id="o" d="M513.46 1987a5.94 5.94 0 0 1-1.94 3.35 2.84 2.84 0 0 1-3.56.01A5.87 5.87 0 0 1 506 1987"/><path id="p" d="M506 1984.7c.15-1.67.88-2.83 2.14-3.36a4.43 4.43 0 0 1 1.81-.34c.67 0 1.26.11 1.76.32 1.28.53 2.04 1.7 2.19 3.39"/><path id="q" d="M506.24 1986.6a8.37 8.37 0 0 1-.22-2.6h.03"/><path id="r" d="M504 1994.04c.53 1.05 2.07 3.25 5.91 3.25 4.35.01 5.64-1.97 5.91-3.26l.01-.03"/><path id="s" d="M505 1985.31c.53 0 .9-.01 1.24-.2.33-.17.64-.52 1.04-1.19a2.07 2.07 0 0 1 1.79-.92h2.09c.81 0 1.53.47 1.93 1.17.21.38.51.77 1.06.98.26.1.6.17 1 .17"/><path id="t" d="M508.37 1981.52a1.52 1.52 0 0 1-.37-.96c.01-.95.97-1.56 2.16-1.56 1.19.01 2.16.62 2.16 1.56 0 .35-.14.68-.36.94"/><path id="u" d="M506 2004s3.73 1.99 8.83.08l.03-.01"/><path id="v" d="M501 2015.29c0-2.13 2.79-2.31 4.3-2.48.26-.03.63-.27.97-.54.33-.25.72-.32 1.09-.24.27.07.54.22.73.47l.97 1.27s.15.21.57.49c.41.27 1.1.62 2.17.87.68.16 1.52.28 2.55.32 1.6.07 2.9.11 3.97.24 1.86.23 3.05.75 3.99 2.18"/><path id="w" d="M504.96 2015.05c-1.49-.12-2.78 0-3.89.26-2.16.52-3.55 1.59-4.07 2.48"/><path id="x" d="M518.67 2015.66c-.11-2.01-2.55-2.29-4.02-2.45-.27-.04-.53-.67-.88-.93a1.29 1.29 0 0 0-1.82.21s-1.25 1.46-1.95 1.72"/><path id="y" d="M504.65 2009s-4.15 1.25-7.47 3.05c-1.8.99-3.37 2.14-3.9 3.34a3.36 3.36 0 0 0 .71 3.7c.88.97 2.3 1.63 4.04 1.63l.33-.01c1.74-.08 3.77-.77 5.84-1.67 1.9-.83 3.84-1.86 5.63-2.78"/><path id="z" d="M515.07 2009c.45.14 4.51 1.38 7.74 3.12 1.8.97 3.34 2.1 3.86 3.27a3.35 3.35 0 0 1-.72 3.7 5.47 5.47 0 0 1-4.37 1.62 18 18 0 0 1-5.98-1.68 88.25 88.25 0 0 1-4.98-2.46l-.06-.04a8.52 8.52 0 0 0-.64-.4c-1.04-.6-3.06-1.61-4.92-1.61"/><path id="A" d="M515 2009l.03.01"/><path id="B" d="M505 2009s1.22.5 2.97.83c1.35.24 3.02.38 4.68.09a8.58 8.58 0 0 0 2.62-.9h.01l.02-.01"/><path id="C" d="M498 2021.56c3.34-.16 7.23-2.19 10.97-4.12 0 0 .29-.19.78-.44"/><path id="D" d="M492 2010.14c1.55-.08 2.18.79 2.18.79s2.4-.57 4.09-3.09c1.92-2.86 1.97-7.31 2.44-10.24.1-.61.21-1.15.36-1.6"/><path id="E" d="M503.79 2000v.01c-.01.33-.18 9.24-6.63 12.47-.21.11-.43.21-.65.3-2.69 1.11-4.82 1.2-5.89.1-.5-.51-.62-1.31-.62-1.31s.93-.25 1.96-.03c.23.03.46.1.69.2"/><path id="F" d="M528.06 2010.15c-1.56-.08-2.19.78-2.19.78s-2.4-.57-4.09-3.09c-1.92-2.89-1.95-7.39-2.42-10.3a9.77 9.77 0 0 0-.36-1.54"/><path id="G" d="M516 2000v.01c.01.34.26 9.51 6.68 12.79.21.11.45.22.68.32 2.69 1.11 4.82 1.19 5.89.1.5-.52.62-1.32.62-1.32s-.92-.25-1.94-.04c-.24.04-.47.11-.71.21"/><path id="H" d="M518.92 1995.83c-.21-.74-.89-1.7-2.86-2.37-.6-.21-1.31-.39-2.17-.54-2.03-.34-1.89-2.92-1.89-2.92"/><path id="I" d="M510.01 1973l-.01 2.68"/><path id="J" d="M499 1976l1.97 2.41"/><path id="K" d="M492 1986h4.67"/><path id="L" d="M523 1986h4.66"/><path id="M" d="M492 1995.79l3.99-2.79"/><path id="N" d="M520 1978.41l2.51-2.41"/><path id="O" d="M483.42 2019.51a31.77 31.77 0 1 1 0 0z"/><path id="P" d="M524 1993l3.9 2.92"/><path id="Q" d="M511 2017.11l.01-.07c.02-.31.21-1.55 1.33-2l.09-.04"/></defs><g transform="translate(-466 -1958)"><use fill="#fff" xlink:href="#a"/><g><use fill="#f0f0f0" xlink:href="#b"/><use fill="#f0f0f0" xlink:href="#c"/><use fill="#fff" xlink:href="#d"/><use fill="#fff" xlink:href="#e"/><use fill="#fff" fill-opacity="0" stroke="#666" stroke-linecap="round" stroke-linejoin="round" stroke-miterlimit="50" stroke-width=".8" xlink:href="#f"/><use fill="#fff" fill-opacity="0" stroke="#666" stroke-linecap="round" stroke-linejoin="round" stroke-miterlimit="50" stroke-width=".8" xlink:href="#g"/><use fill="#fff" fill-opacity="0" stroke="#666" stroke-linecap="round" stroke-linejoin="round" stroke-miterlimit="50" stroke-width=".8" xlink:href="#h"/><use fill="#fff" fill-opacity="0" stroke="#666" stroke-linecap="round" stroke-linejoin="round" stroke-miterlimit="50" stroke-width=".8" xlink:href="#i"/><use fill="#fff" fill-opacity="0" stroke="#666" stroke-linecap="round" stroke-linejoin="round" stroke-miterlimit="50" stroke-width=".8" xlink:href="#j"/><use fill="#fff" fill-opacity="0" stroke="#666" stroke-linecap="round" stroke-linejoin="round" stroke-miterlimit="50" stroke-width=".8" xlink:href="#k"/><use fill="#fff" fill-opacity="0" stroke="#666" stroke-linecap="round" stroke-linejoin="round" stroke-miterlimit="50" stroke-width=".8" xlink:href="#l"/><use fill="#fff" fill-opacity="0" stroke="#666" stroke-linecap="round" stroke-linejoin="round" stroke-miterlimit="50" stroke-width=".8" xlink:href="#m"/><use fill="#fff" fill-opacity="0" stroke="#666" stroke-linecap="round" stroke-linejoin="round" stroke-miterlimit="50" stroke-width=".8" xlink:href="#n"/><use fill="#fff" fill-opacity="0" stroke="#666" stroke-linecap="round" stroke-linejoin="round" stroke-miterlimit="50" stroke-width=".8" xlink:href="#o"/><use fill="#fff" fill-opacity="0" stroke="#666" stroke-linecap="round" stroke-linejoin="round" stroke-miterlimit="50" stroke-width=".8" xlink:href="#p"/><use fill="#fff" fill-opacity="0" stroke="#666" stroke-linecap="round" stroke-linejoin="round" stroke-miterlimit="50" stroke-width=".8" xlink:href="#q"/><use fill="#fff" fill-opacity="0" stroke="#666" stroke-linecap="round" stroke-linejoin="round" stroke-miterlimit="50" stroke-width=".8" xlink:href="#r"/><use fill="#fff" fill-opacity="0" stroke="#666" stroke-linecap="round" stroke-linejoin="round" stroke-miterlimit="50" stroke-width=".8" xlink:href="#s"/><use fill="#fff" fill-opacity="0" stroke="#666" stroke-linecap="round" stroke-linejoin="round" stroke-miterlimit="50" stroke-width=".8" xlink:href="#t"/><use fill="#fff" fill-opacity="0" stroke="#666" stroke-linecap="round" stroke-linejoin="round" stroke-miterlimit="50" stroke-width=".8" xlink:href="#u"/><use fill="#fff" fill-opacity="0" stroke="#666" stroke-linecap="round" stroke-linejoin="round" stroke-miterlimit="50" stroke-width=".8" xlink:href="#v"/><g><use fill="#fff" fill-opacity="0" stroke="#666" stroke-linecap="round" stroke-linejoin="round" stroke-miterlimit="50" stroke-width=".8" xlink:href="#w"/></g><g><use fill="#fff" fill-opacity="0" stroke="#666" stroke-linecap="round" stroke-linejoin="round" stroke-miterlimit="50" stroke-width=".8" xlink:href="#x"/></g><g><use fill="#fff" fill-opacity="0" stroke="#666" stroke-linecap="round" stroke-linejoin="round" stroke-miterlimit="50" stroke-width=".8" xlink:href="#y"/></g><g><use fill="#fff" fill-opacity="0" stroke="#666" stroke-linecap="round" stroke-linejoin="round" stroke-miterlimit="50" stroke-width=".8" xlink:href="#z"/></g><g><use fill="#fff" fill-opacity="0" stroke="#666" stroke-linecap="round" stroke-linejoin="round" stroke-miterlimit="50" stroke-width=".8" xlink:href="#A"/></g><g><use fill="#fff" fill-opacity="0" stroke="#666" stroke-linecap="round" stroke-linejoin="round" stroke-miterlimit="50" stroke-width=".8" xlink:href="#B"/></g><g><use fill="#fff" fill-opacity="0" stroke="#666" stroke-linecap="round" stroke-linejoin="round" stroke-miterlimit="50" stroke-width=".8" xlink:href="#C"/></g><g><use fill="#fff" fill-opacity="0" stroke="#666" stroke-linecap="round" stroke-linejoin="round" stroke-miterlimit="50" stroke-width=".8" xlink:href="#D"/></g><g><use fill="#fff" fill-opacity="0" stroke="#666" stroke-linecap="round" stroke-linejoin="round" stroke-miterlimit="50" stroke-width=".8" xlink:href="#E"/></g><g><use fill="#fff" fill-opacity="0" stroke="#666" stroke-linecap="round" stroke-linejoin="round" stroke-miterlimit="50" stroke-width=".8" xlink:href="#F"/></g><g><use fill="#fff" fill-opacity="0" stroke="#666" stroke-linecap="round" stroke-linejoin="round" stroke-miterlimit="50" stroke-width=".8" xlink:href="#G"/></g><g><use fill="#fff" fill-opacity="0" stroke="#666" stroke-linecap="round" stroke-linejoin="round" stroke-miterlimit="50" stroke-width=".8" xlink:href="#H"/></g><g><use fill="#fff" fill-opacity="0" stroke="#666" stroke-linecap="round" stroke-linejoin="round" stroke-miterlimit="50" stroke-width=".8" xlink:href="#I"/></g><g><use fill="#fff" fill-opacity="0" stroke="#666" stroke-linecap="round" stroke-linejoin="round" stroke-miterlimit="50" stroke-width=".8" xlink:href="#J"/></g><g><use fill="#fff" fill-opacity="0" stroke="#666" stroke-linecap="round" stroke-linejoin="round" stroke-miterlimit="50" stroke-width=".8" xlink:href="#K"/></g><g><use fill="#fff" fill-opacity="0" stroke="#666" stroke-linecap="round" stroke-linejoin="round" stroke-miterlimit="50" stroke-width=".8" xlink:href="#L"/></g><g><use fill="#fff" fill-opacity="0" stroke="#666" stroke-linecap="round" stroke-linejoin="round" stroke-miterlimit="50" stroke-width=".8" xlink:href="#M"/></g><g><use fill="#fff" fill-opacity="0" stroke="#666" stroke-linecap="round" stroke-linejoin="round" stroke-miterlimit="50" stroke-width=".8" xlink:href="#N"/></g><g><use fill="#fff" fill-opacity="0" stroke="#666" stroke-linecap="round" stroke-linejoin="round" stroke-miterlimit="50" stroke-width=".8" xlink:href="#O"/></g><g><use fill="#fff" fill-opacity="0" stroke="#666" stroke-linecap="round" stroke-linejoin="round" stroke-miterlimit="50" stroke-width=".8" xlink:href="#P"/></g><g><use fill="#fff" fill-opacity="0" stroke="#666" stroke-linecap="round" stroke-linejoin="round" stroke-miterlimit="50" stroke-width=".8" xlink:href="#Q"/></g></g></g></svg>